<svg width="750" height="500" viewBox="0 0 750 500" fill="none" xmlns="http://www.w3.org/2000/svg">
<path d="M750 -123H0V627H750V-123Z" fill="white"/>
<path fill-rule="evenodd" clip-rule="evenodd" d="M609.155 398.814C751.34 216.175 729.36 78.5752 414.952 34.4162C100.543 -9.74285 38.7363 290.742 70.0766 336.028C101.417 381.314 466.97 581.453 609.155 398.814Z" fill="#64FCD9"/>
<path fill-rule="evenodd" clip-rule="evenodd" d="M487.174 179.211C482.897 183.637 478.651 188.107 474.135 192.28C471.029 195.15 467.705 197.919 464.076 200.049C460.734 202.01 456.967 203.592 453.186 204.383C448.887 205.283 454.68 262.011 423.506 282.516C412.629 289.67 370.068 286.537 363.612 281.094C362.47 280.132 365.62 268.457 365.34 263.754C365.232 261.938 364.439 260.08 363.612 258.414C362.89 256.958 361.482 256.737 359.881 257.339C355.888 258.839 351.806 260.113 347.86 261.724C346.363 262.335 345.189 263.696 343.784 264.584C341.015 266.333 338.23 268.068 335.354 269.628C334.7 269.983 333.649 269.605 332.78 269.564C333.224 268.923 333.537 265.904 329.27 268.141C321.001 272.476 314.859 279.093 309.554 286.537C306.189 291.259 303.194 296.247 300.079 301.145C299.915 301.402 294.006 310.136 290.686 309.418C288.573 308.96 289.407 298.141 287.309 299.961C279.229 306.971 262.542 312.926 261.307 312.293C259.199 311.212 259.011 308.362 260.056 306.404C262.249 302.297 264.468 298.046 267.508 294.585C272.599 288.786 278.178 283.384 283.846 278.132C292.186 270.406 300.647 262.796 309.339 255.471C312.95 252.429 317.276 250.228 321.321 247.715C321.746 247.451 322.473 247.671 323.06 247.666C322.929 248.05 322.722 248.613 322.44 249.356C325.617 249.71 326.29 248.341 324.461 245.248C323.053 242.867 321.612 240.489 322.07 237.678C322.621 234.302 325.869 231.766 329.612 231.678C331.537 231.633 333.47 232.15 335.407 232.314C336.276 232.387 337.393 232.541 338.009 232.107C344.098 227.82 349.891 223.075 356.19 219.135C363.968 214.27 371.952 209.638 380.222 205.692C385.65 203.101 391.733 201.873 397.543 200.104C398.707 199.749 400.014 199.856 401.164 199.475C401.942 199.216 402.897 198.618 403.19 197.926C404.567 194.673 407.088 192.91 410.263 191.727C411.116 191.408 412.086 190.621 412.417 189.81C414.733 184.127 416.917 178.39 419.04 172.632C419.136 172.373 418.17 171.307 417.827 171.366C414.839 171.88 412.286 171.645 410.907 168.409C410.795 168.146 410.147 168.075 409.733 167.982C404.325 166.767 402.176 160.585 405.583 156.238C405.969 155.747 406.106 154.498 405.768 154.092C403.298 151.125 403.122 147.524 403.786 144.205C404.226 142.004 406.213 140.024 407.771 138.167C408.787 136.955 409.216 136.263 408.321 134.615C407.225 132.594 405.841 130.685 406.257 127.849C407.093 122.141 408.161 121.082 414.391 119.344C416.098 118.868 416.681 118.277 416.945 116.561C418.232 108.173 420.196 105.055 428.734 102.657C431.626 101.845 434.37 102.028 437.195 103.178C438.083 103.54 439.641 103.061 440.541 102.45C444.073 100.047 447.628 98.4589 452.073 99.7989C453.127 100.117 454.695 99.5009 455.762 98.8679C459.895 96.4189 464.13 95.2669 468.794 97.1379C469.505 97.4229 470.137 97.9029 470.844 98.2019C472.256 98.7989 473.672 99.7359 475.128 99.8209C480.002 100.105 483.86 101.6 485.607 106.656C485.787 107.178 487.037 107.388 487.825 107.631C489.711 108.211 491.727 108.489 493.49 109.316C496.61 110.779 497.059 112.384 496.08 115.746C495.684 117.106 494.788 118.68 497.745 118.834C500.649 118.986 501.715 121.009 502.224 124.125C502.411 125.275 503.392 126.721 504.412 127.235C508.497 129.291 509.019 130.108 508.239 134.856C508.137 135.473 508.2 136.137 508.296 136.763C508.613 138.837 509.182 140.894 509.284 142.975C509.451 146.412 509.329 149.863 509.329 153.585C508.097 158.399 499.641 164.468 493.49 170.453C490.405 173.455 488.251 178.097 487.174 179.211Z" fill="white"/>
<path d="M472.5 183C474.985 183 477 181.209 477 179C477 176.791 474.985 175 472.5 175C470.015 175 468 176.791 468 179C468 181.209 470.015 183 472.5 183Z" fill="#FFB61D"/>
<path d="M437.5 172C439.985 172 442 170.433 442 168.5C442 166.567 439.985 165 437.5 165C435.015 165 433 166.567 433 168.5C433 170.433 435.015 172 437.5 172Z" fill="#FFB61D"/>
<path fill-rule="evenodd" clip-rule="evenodd" d="M504.348 251.995C505.025 251.295 505.6 250.161 506.397 249.974C509.032 249.354 511.501 250.344 513.055 252.364C515.039 254.943 516.846 257.789 518.006 260.799C518.296 261.551 517.661 263.048 516.101 265.29C517.795 266.362 518.822 267.042 519.182 267.329C522.958 270.345 526.645 273.479 530.269 276.677C533.135 279.205 535.868 281.883 538.67 284.483C538.958 284.751 539.317 284.943 539.643 285.171C539.87 284.712 540.311 284.242 540.289 283.795C540.189 281.806 539.81 279.824 539.812 277.839C539.815 275.794 540.385 273.737 540.284 271.706C539.826 262.521 539.124 253.348 538.704 244.162C538.484 239.372 540.997 236.155 545.531 234.379C551.082 232.205 556.786 230.869 562.749 230.5C570.182 230.039 577.611 228.91 585.03 229.003C592.481 229.096 599.917 230.349 607.362 231.07C611.449 231.466 615.542 231.811 619.632 232.183C627.721 232.919 635.823 233.544 643.886 234.502C645.331 234.674 646.964 235.965 647.902 237.2C650.697 240.88 651.963 245.092 652.234 249.809C652.531 254.972 653.653 260.083 654.328 265.228C654.63 267.535 654.791 269.866 654.888 272.192C655.288 281.816 655.996 291.447 655.861 301.065C655.791 306.052 654.232 311.024 653.273 315.988C652.745 318.716 650.595 319.769 648.197 320.153C643.928 320.837 639.615 321.25 635.332 321.858C609.614 325.51 583.736 323.472 557.933 324.118C546.91 324.395 536.973 321.468 527.476 316.049C522.664 313.303 518.654 310.13 517.365 304.605C516.756 301.993 516.152 298.993 518.665 296.813C519.324 296.24 520.384 296.068 521.295 295.879C521.613 295.814 522.036 296.254 522.41 296.463C522.219 296.789 522.102 297.208 521.826 297.426C519.818 299.012 520.044 300.363 521.865 302.069C526.713 306.611 532.755 309.04 538.572 311.884C539.108 312.146 539.654 312.396 540.215 312.592C540.574 312.717 541.167 312.915 541.311 312.76C541.608 312.441 541.797 311.909 541.805 311.461C541.813 310.966 541.376 310.43 541.462 309.975C542.221 305.99 539.882 304.52 536.707 302.858C527.661 298.121 518.863 292.909 509.962 287.894C507.801 286.675 505.585 286.007 503.179 287.292C502.813 287.487 502.327 287.523 501.897 287.523C491.196 287.535 480.493 287.672 469.796 287.487C461.735 287.348 453.684 286.684 445.623 286.453C435.187 286.155 418.522 283.479 421.614 283.653C422.164 283.684 422.804 283.821 423.244 283.597C423.639 283.396 423.816 282.766 424.089 282.326C423.683 282.217 423.189 281.9 422.886 282.03C420.35 283.118 420.895 281.984 421.145 280.148C421.853 274.96 422.381 269.841 420.932 264.515C419.796 260.336 420.991 255.872 422.535 251.731C424.083 247.576 425.706 243.448 427.187 239.27C427.46 238.501 427.21 237.547 427.202 236.679C426.561 237.09 425.937 237.53 425.275 237.904C424.522 238.328 423.736 238.693 422.964 239.083C422.97 238.127 422.69 237.051 423.029 236.233C425.183 231.037 427.538 225.924 429.666 220.717C430.087 219.688 429.832 218.373 429.846 217.189C429.858 216.137 429.564 215.017 429.83 214.042C430.898 210.133 433.245 209.054 437.317 210.241C441.255 211.388 442.725 213.415 446.755 210.588C447.411 210.128 448.2 209.678 448.568 209.022C449.418 207.507 450.555 205.893 452.228 206.852C453.532 207.6 454.806 209.472 454.935 210.946C455.13 213.185 456.038 213.428 457.847 213.386C464.822 213.226 470.372 216.676 475.49 220.836C479.486 224.084 483.359 227.529 486.956 231.21C491.633 235.994 505.009 252.217 504.348 251.995Z" fill="white"/>
<path fill-rule="evenodd" clip-rule="evenodd" d="M606.371 261.25L606.826 261.303C607.474 261.379 608.003 260.875 608.008 260.176C608.012 259.478 607.494 258.851 606.85 258.775L606.397 258.722C605.05 258.563 603.803 258.937 602.818 259.687C602.153 257.422 600.279 255.628 598.04 255.363L594.969 255L594.807 259.084C594.683 262.176 596.948 264.965 599.854 265.3L600.624 265.389L600.561 267.943C599.695 267.2 598.639 266.7 597.491 266.568C594.469 266.221 591.89 268.544 591.743 271.747C591.726 272.112 591.741 272.473 591.786 272.828C589.219 273.083 587.169 275.212 587.01 278.016C586.851 280.819 588.684 283.382 591.265 284.211C591.186 284.552 591.137 284.906 591.12 285.271C590.991 288.074 592.88 290.637 595.509 291.466C595.433 291.807 595.387 292.16 595.374 292.526C595.261 295.729 597.822 298.618 601.083 298.966C604.344 299.313 607.019 296.99 607.045 293.787C607.048 293.421 607.018 293.061 606.957 292.706C609.609 292.451 611.601 290.322 611.594 287.518C611.593 287.153 611.56 286.792 611.496 286.437C614.101 286.183 616.036 284.053 616 281.25C615.963 278.446 614.014 275.883 611.471 275.054C611.532 274.713 611.562 274.36 611.561 273.995C611.554 270.791 609.089 267.902 606.067 267.555C604.919 267.423 603.847 267.677 602.952 268.217L603.024 264.399C603.061 262.452 604.562 261.039 606.371 261.25ZM597.002 258.537L597.061 257L597.907 257.088C599.659 257.27 601.046 258.784 600.999 260.463L600.956 262L600.1 261.912C598.328 261.73 596.938 260.216 597.002 258.537ZM608 273.401C607.999 273.774 607.934 274.122 607.811 274.441C606.678 274.616 605.686 275.176 604.967 276C604.268 275.02 603.291 274.244 602.165 273.82C602.05 273.474 601.993 273.112 602.001 272.739C602.033 271.056 603.394 269.835 605.035 270.018C606.676 270.201 608.006 271.718 608 273.401ZM600.933 281.982C599.267 281.804 597.951 280.321 598.001 278.676C598.052 277.032 599.427 275.839 601.068 276.018C602.708 276.196 604.024 277.679 604 279.324C603.976 280.968 602.6 282.161 600.933 281.982ZM598.103 268.018C599.742 268.201 601.042 269.718 600.999 271.401C600.989 271.781 600.919 272.124 600.788 272.441C599.649 272.616 598.643 273.176 597.903 274C597.224 273.02 596.263 272.244 595.145 271.82C595.036 271.473 594.987 271.111 595.003 270.739C595.072 269.056 596.463 267.835 598.103 268.018ZM590.004 277.676C590.09 276.032 591.494 274.839 593.134 275.018C594.773 275.196 596.058 276.679 595.998 278.324C595.938 279.968 594.534 281.161 592.868 280.982C591.203 280.804 589.918 279.321 590.004 277.676ZM593.23 283.559C594.364 283.384 595.365 282.824 596.095 282C596.768 282.979 597.725 283.756 598.841 284.18C598.954 284.527 599.008 284.888 598.999 285.261C598.958 286.944 597.568 288.165 595.902 287.982C594.236 287.799 592.935 286.282 593.003 284.599C593.017 284.227 593.095 283.879 593.23 283.559ZM598.001 292.599C598.012 292.225 598.085 291.878 598.216 291.559C599.348 291.384 600.342 290.824 601.063 290C601.746 290.979 602.711 291.756 603.83 292.18C603.947 292.527 604.005 292.889 604 293.261C603.977 294.944 602.602 296.165 600.935 295.982C599.269 295.799 597.953 294.282 598.001 292.599ZM604.966 289.982C603.299 289.799 601.969 288.282 602.001 286.599C602.008 286.219 602.075 285.876 602.203 285.559C603.333 285.384 604.32 284.824 605.033 284C605.725 284.979 606.697 285.756 607.819 286.18C607.939 286.527 608.001 286.889 608 287.261C607.994 288.944 606.633 290.165 604.966 289.982ZM609.998 282.982C608.331 282.804 606.986 281.321 607 279.676C607.014 278.032 608.361 276.839 610.002 277.018C611.643 277.196 612.988 278.679 613 280.324C613.012 281.968 611.666 283.161 609.998 282.982Z" fill="#FFB61D"/>
<path fill-rule="evenodd" clip-rule="evenodd" d="M134.095 381.074C128.773 380.341 123.466 379.472 118.128 378.894C111.731 378.201 105.283 377.949 98.9041 377.136C94.219 376.538 89.4944 375.932 85.4679 372.828C82.0722 370.21 81.4322 366.413 84.4813 363.423C86.0898 361.845 87.8063 360.371 89.5443 358.936C89.9564 358.595 90.651 358.597 91.2156 358.441C91.1421 358.648 126.83 295.786 161.133 290.933C195.436 286.08 312.075 295.967 310.207 295.788C309.394 295.71 308.636 295.048 307.853 294.655C308.701 294.126 309.553 293.133 310.397 293.139C319.177 293.208 327.955 293.584 336.733 293.581C345.881 293.578 355.028 293.105 364.176 293.108C373.692 293.111 383.215 293.28 392.723 293.673C399.699 293.962 406.662 294.663 413.62 295.3C420.793 295.956 427.95 296.783 435.119 297.489C442.11 298.176 447.922 305.967 445.039 312.308C443.726 315.197 441.551 317.702 439.704 320.338C435.442 326.419 431.078 332.43 426.874 338.551C422.15 345.43 417.178 352.179 413.011 359.387C408.804 366.664 402.795 372.252 397.223 378.273C393.54 382.252 389.427 385.837 385.785 389.851C382.402 393.578 377.999 394.812 373.408 395.394C368.066 396.072 362.653 396.187 357.273 396.578C352.536 396.923 347.79 397.719 343.068 397.589C335.079 397.368 327.102 396.622 319.127 396.004C312.985 395.529 306.849 394.971 300.721 394.344C294.194 393.676 287.681 392.87 281.159 392.153C279.027 391.919 276.888 391.732 274.747 391.602C271.136 391.381 267.523 391.152 263.908 391.053C255.592 390.823 247.273 390.698 238.956 390.473C234.603 390.355 230.252 390.151 225.903 389.923C219.505 389.586 213.102 389.303 206.717 388.796C198.896 388.176 191.095 387.304 183.279 386.626C178.089 386.175 172.877 385.967 167.692 385.474C163.385 385.064 159.102 384.396 154.532 383.843C147.535 382.92 140.814 382 134.095 381.074Z" fill="white"/>
<path fill-rule="evenodd" clip-rule="evenodd" d="M192.724 113.732C192.54 110.58 192.175 107.703 192.205 104.83C192.289 97.0338 194.912 63.3088 195.158 55.5158C195.179 54.8298 279.989 54.3948 280.479 53.9758C280.846 53.6628 281.397 53.4918 281.891 53.4138C288.316 52.4008 294.691 51.9328 301.191 53.3078C305.269 54.1698 309.536 54.1388 313.718 54.5068C320.037 55.0608 326.367 55.5208 332.672 56.2078C335.672 56.5348 337.317 59.6228 337.236 63.3998C337.178 66.1168 337.499 68.8488 337.758 71.5638C338.061 74.7378 338.622 77.8918 338.821 81.0708C339.28 88.3828 339.526 95.7088 339.988 103.021C340.16 105.74 341.108 108.457 340.973 111.138C340.729 115.994 339.948 120.823 339.37 125.661C339.034 128.466 338.4 131.262 338.345 134.07C338.2 141.538 338.363 149.012 338.272 156.482C338.213 161.388 338.149 166.312 337.677 171.189C337.249 175.617 336.155 179.977 335.589 184.398C335.393 185.933 336.078 187.561 336.049 189.141C335.953 194.323 335.569 199.504 335.593 204.684C335.604 207.058 333.559 207.523 332.52 207.633C327.763 208.136 323.274 209.987 318.294 209.602C310.379 208.991 302.407 209.06 294.458 208.969C291.862 208.939 289.249 209.566 286.666 209.441C277.758 209.011 268.859 208.391 259.958 207.821C257.818 207.684 255.685 207.329 253.546 207.295C239.234 207.071 224.916 207.081 210.613 206.625C205.637 206.467 200.631 205.712 196.169 202.801C192.675 200.522 190.873 197.271 190.615 193.516C190.083 185.777 189.927 177.994 190.018 170.234C190.107 162.636 190.634 155.04 191.091 147.45C191.299 143.996 191.985 140.567 192.125 137.114C192.31 132.57 192.103 128.012 192.194 123.463C192.257 120.309 192.54 117.16 192.724 113.732Z" fill="white"/>
<path fill-rule="evenodd" clip-rule="evenodd" d="M364.176 293.108C373.692 293.111 383.215 293.28 392.723 293.673C399.699 293.962 406.662 294.663 413.62 295.3C420.793 295.956 427.95 296.783 435.119 297.489C442.11 298.176 447.922 305.967 445.039 312.308C443.726 315.197 441.551 317.702 439.704 320.338C435.442 326.419 431.078 332.43 426.874 338.551C422.15 345.43 417.178 352.179 413.011 359.387C408.804 366.664 402.795 372.252 397.223 378.273C393.54 382.252 389.427 385.837 385.785 389.851C382.402 393.578 377.999 394.812 373.408 395.394C368.066 396.072 362.653 396.187 357.273 396.578C352.536 396.923 347.79 397.719 343.068 397.589C335.079 397.368 327.102 396.622 319.127 396.004C312.985 395.529 306.849 394.971 300.721 394.344C294.194 393.676 287.681 392.87 281.159 392.153C279.027 391.919 276.888 391.732 274.747 391.602C271.136 391.381 267.523 391.152 263.908 391.053C255.592 390.823 247.273 390.698 238.956 390.473C234.603 390.355 230.252 390.151 225.903 389.923C219.505 389.586 213.102 389.303 206.717 388.796C198.896 388.176 191.095 387.304 183.279 386.626C178.089 386.175 172.877 385.967 167.692 385.474C163.385 385.064 159.102 384.396 154.532 383.843C147.535 382.92 140.814 382.001 134.095 381.074C128.773 380.341 123.466 379.472 118.128 378.894C111.731 378.201 105.283 377.949 98.9041 377.136L97.997 377.019C93.6122 376.449 89.2346 375.732 85.4679 372.828C82.0721 370.21 81.4322 366.413 84.4813 363.423C86.0898 361.845 87.8063 360.371 89.5443 358.936C89.9564 358.596 90.651 358.597 91.2156 358.441C91.0341 358.952 90.9845 359.583 90.6479 359.952C89.2973 361.434 87.6733 362.698 86.4905 364.295C84.2333 367.342 84.8151 370.087 88.3897 371.577C91.6139 372.92 95.1011 373.869 98.562 374.361C106.634 375.509 114.764 376.245 122.862 377.212C128.559 377.892 134.238 378.717 139.935 379.4C143.647 379.846 147.37 380.244 151.099 380.487C153.285 380.629 154.574 378.646 153.666 376.635C149.744 367.95 140.516 360.59 129.402 362.35C123.655 363.26 119.54 366.969 116.854 372.202C116.432 373.024 115.48 373.574 114.773 374.25C114.742 373.124 114.285 371.77 114.748 370.909C118.252 364.383 123.518 360.235 131.107 359.483C131.536 359.44 132.211 359.447 132.341 359.202C133.626 356.781 136.404 355.237 136.297 351.976C136.123 346.71 138.418 342.923 143.228 340.5C144.54 339.839 145.657 338.301 146.31 336.907C148.659 331.888 152.196 328.696 157.948 328.504C159.158 328.464 160.372 328.581 161.585 328.626C160.409 329.343 159.287 330.176 158.045 330.751C156.27 331.573 154.267 331.976 152.616 332.978C150.508 334.256 148.775 335.963 149.478 338.932C149.588 339.395 148.858 340.272 148.305 340.635C146.437 341.861 144.475 342.945 142.544 344.076C139.381 345.93 139.104 349.24 138.543 352.32C138.343 353.416 138.645 354.38 140.451 353.476C143.944 351.729 147.62 353.551 150.203 356.806C152.208 359.332 153.952 361.888 154.635 364.954C155.037 366.753 154.746 368.761 154.476 370.634C154.312 371.768 155.76 376.328 156.812 376.352C157.694 376.372 158.661 375.785 159.47 375.275C162.8 373.178 166.236 372.122 170.22 373.265C171.557 373.649 173.272 373.906 174.387 372.538C176.76 369.625 179.998 369.332 183.357 369.477C185.005 369.548 185.415 368.584 186.418 367.478C189.077 364.549 187.029 363.599 185.146 362.082C184.127 361.261 183.291 360.129 182.632 358.987C182.352 358.502 182.738 357.632 182.821 356.937C183.267 357.238 183.781 357.473 184.147 357.851C186.894 360.692 189.905 362.971 194.037 363.439C194.764 363.521 195.379 364.6 196.045 365.218C195.239 365.362 194.388 365.745 193.635 365.604C191.468 365.198 187.795 367.55 187.844 369.746C187.863 370.584 188.877 371.847 189.708 372.136C192.459 373.093 194.372 374.833 195.439 377.439C195.771 378.25 195.476 379.318 195.467 380.269C194.815 379.785 193.982 379.428 193.54 378.797C190.36 374.263 186.06 372.016 180.519 372.241C179.852 372.268 179.145 372.49 178.548 372.799C177.869 373.15 177.293 373.7 176.672 374.164C177.282 374.438 178.015 374.579 178.482 375.009C181.051 377.368 183.548 379.806 186.086 382.2C186.89 382.959 187.676 384.188 188.587 384.307C192.928 384.875 197.305 385.199 201.677 385.488C208.161 385.916 214.653 386.231 221.141 386.615C223.741 386.769 226.335 387.062 228.937 387.148C235.962 387.379 242.989 387.514 250.014 387.724C255.104 387.876 260.207 387.906 265.278 388.314C272.273 388.878 279.243 389.754 286.226 390.48C288.268 390.693 290.313 390.889 292.361 391.032C297.926 391.42 303.505 391.648 309.055 392.183C314.234 392.682 319.377 393.55 324.549 394.143C326.565 394.374 328.616 394.295 330.65 394.36C336.385 394.543 342.119 394.787 347.855 394.879C349.712 394.909 351.603 394.672 353.421 394.285C354.009 394.16 354.748 393.219 354.849 392.563C355.805 386.38 359.204 382.214 364.993 379.985C366.608 379.363 367.206 378.876 366.64 376.743C364.924 370.276 357.777 366.564 352.264 366.162C347.52 365.816 342.882 366.301 338.991 369.47C338.069 370.22 337.348 371.211 336.503 372.061C336.085 372.482 335.597 372.832 335.14 373.215C334.901 372.576 334.266 371.662 334.488 371.345C335.631 369.707 336.702 367.72 338.332 366.775C344.036 363.469 350.15 362.107 356.645 364.471C358.029 364.974 358.927 364.882 358.792 363.022C358.578 360.068 359.651 357.563 361.503 355.275C361.862 354.832 361.779 353.608 361.417 353.069C356.906 346.361 350.432 343.144 342.469 342.918C338.861 342.816 335.02 342.161 332.138 345.38C332.047 345.481 331.162 345.158 331.15 344.996C331.088 344.161 330.919 342.737 331.282 342.565C333.354 341.585 335.538 340.336 337.738 340.22C344.763 339.851 351.638 340.816 357.49 345.151C359.45 346.604 361.141 348.542 362.589 350.526C363.804 352.19 364.449 352.703 366.606 351.537C372.603 348.294 379.066 348.133 385.525 350.158C386.195 350.368 386.52 351.679 387.004 352.479C386.212 352.454 385.361 352.609 384.635 352.377C377.909 350.227 371.521 351.58 365.599 354.771C362.783 356.288 361.576 359.481 360.951 362.731C360.526 364.944 360.935 366.215 363.057 367.544C366.173 369.496 368.132 372.719 369.239 376.244C369.804 378.044 370.883 378.586 372.444 378.281C377.987 377.2 382.885 378.849 387.406 381.821C389.22 383.015 390.339 382.711 391.66 381.168C394.652 377.67 397.654 374.168 400.862 370.872C404.961 366.66 408.348 362.005 411.448 356.996C416.208 349.305 421.534 341.963 426.671 334.508C429.35 330.62 432.184 326.837 434.795 322.906C435.01 322.584 434.223 321.064 433.611 320.815C430.925 319.725 428.191 318.588 425.364 318.048C421.034 317.22 416.624 316.747 412.227 316.343C405.087 315.686 397.924 315.273 390.782 314.636C383.424 313.98 376.085 313.123 368.727 312.464C365.127 312.142 361.505 312.03 357.89 311.896C351.972 311.677 346.052 311.509 340.133 311.336C333.476 311.141 326.814 311.054 320.163 310.748C315.88 310.55 311.607 310.086 307.343 309.623C306.738 309.557 306.205 308.821 305.639 308.395C306.227 308.083 306.819 307.493 307.403 307.5C316.828 307.626 326.253 307.799 335.676 308.031C338.37 308.097 341.055 308.463 343.749 308.55C350.866 308.781 358.006 308.657 365.098 309.193C373.042 309.794 380.937 311.01 388.864 311.864C391.909 312.191 394.991 312.157 398.039 312.458C409.19 313.559 420.497 313.529 431.343 316.89C432.554 317.266 434.002 317.659 434.762 318.541C436.186 320.193 437.027 319.44 437.92 318.241C439.434 316.206 440.854 314.102 442.361 312.061C445.339 308.024 440.024 300.325 435.205 300.142C428.482 299.886 421.797 298.736 415.085 298.067C410.451 297.605 405.806 297.132 401.155 296.98C391.642 296.67 382.123 296.555 372.607 296.393C360.6 296.19 348.593 295.936 336.586 295.872C330.944 295.842 325.302 296.301 319.658 296.351C316.508 296.378 313.348 296.089 310.207 295.788C309.394 295.71 308.636 295.048 307.853 294.655C308.701 294.126 309.553 293.133 310.397 293.139C319.177 293.208 327.955 293.584 336.733 293.581C345.881 293.578 355.028 293.106 364.176 293.108ZM357.669 390.762C357.533 395.156 357.973 394.35 361.469 394.33C362.96 394.321 364.446 393.868 365.94 393.826C373.888 393.601 381.17 391.659 386.91 385.772C387.171 385.505 386.879 384.101 386.5 383.91C384.453 382.876 382.365 381.799 380.165 381.214C372.415 379.153 361.058 381.304 357.669 390.762ZM279.43 331.316C281.633 331.914 283.664 333.128 285.851 333.811C286.817 334.113 288.246 334.171 289.013 333.661C293.136 330.919 297.289 331.559 301.607 332.979C302.956 333.422 304.505 333.211 305.92 333.504C307.509 333.832 309.312 334.033 310.548 334.937C312.179 336.132 313.312 337.993 314.738 339.492C315.333 340.119 316.068 340.867 316.847 341.025C324.447 342.568 327.379 348.163 328.856 354.889C330.361 361.745 330.804 368.651 328.908 375.546C328.743 376.147 328.886 376.832 328.886 377.754C328.333 380.844 327.812 383.665 327.211 386.468C326.942 387.721 326.747 389.096 326.072 390.123C325.586 390.863 324.362 391.12 323.467 391.592C323.32 391.239 322.978 390.835 323.055 390.542C324.041 386.808 325.246 383.125 326.073 379.358C326.842 375.854 327.348 372.28 327.735 368.711C327.975 366.492 327.985 364.203 327.73 361.988C327.372 358.876 326.719 355.793 326.108 352.715C325.267 348.48 319.009 343.149 315.253 343.451C313.832 343.565 312.636 343.625 314.089 345.668C315.183 347.206 315.536 349.288 316.112 351.161C316.2 351.447 315.705 351.911 315.479 352.293C315.149 352.014 314.747 351.788 314.502 351.449C312.912 349.255 312.483 346.219 309.638 344.933C305.73 343.167 301.922 341.433 297.371 342.814C294.492 343.689 293.244 345.255 293.456 348.157C293.496 348.707 293.599 349.312 293.424 349.803C293.241 350.319 292.76 350.729 292.409 351.186C292.022 350.765 291.414 350.397 291.298 349.912C291.111 349.127 291.248 348.265 291.248 347.435C291.248 339.93 285.055 333.827 277.552 334.081C276.607 334.113 275.692 334.883 274.755 335.293C274.309 335.489 273.844 335.643 273.388 335.816C273.378 335.187 273.107 334.367 273.403 333.959C274.87 331.939 276.881 330.624 279.43 331.316ZM310.65 365.824C311.185 365.926 311.776 365.917 312.244 366.153C313.394 366.731 314.487 367.422 315.741 368.206C317.791 371.33 319.266 374.182 317.438 377.998C315.865 381.282 315.08 384.951 314.069 388.485C313.918 389.012 314.307 389.833 314.693 390.323C314.948 390.647 315.646 390.621 316.145 390.751C315.546 390.847 314.949 391.016 314.349 391.026C311.521 391.073 310.828 390.199 311.745 387.552C312.777 384.573 314.031 381.669 315.028 378.679C316.502 374.259 315.752 371.965 312.161 369.042C311.663 368.637 311.091 368.208 310.83 367.659C310.581 367.137 310.696 366.443 310.65 365.824ZM261.679 299.2C261.443 299.591 261.294 300.093 260.959 300.357C256.452 303.902 257.177 308.799 257.762 313.491C258.577 320.015 262.298 325.11 266.728 329.671C272.296 335.403 277.906 341.102 283.693 346.61C288.713 351.388 293.944 355.951 299.216 360.453C300.686 361.708 302.626 362.412 304.356 363.36C304.729 363.565 305.247 363.634 305.485 363.934C306.286 364.943 306.99 366.027 307.732 367.082C306.787 366.795 305.852 366.469 304.896 366.226C299.72 364.909 295.744 361.535 291.951 358.139C284.679 351.63 277.465 345.016 270.728 337.966C265.907 332.922 261.699 327.245 257.611 321.567C255.24 318.271 254.945 314.162 255.259 310.109C255.295 309.644 255.171 309.166 255.121 308.694C254.617 308.937 253.904 309.044 253.643 309.446C251.427 312.849 249.506 316.465 247.072 319.698C244.895 322.587 242.19 325.08 239.696 327.728C238.696 328.79 237.333 329.631 236.663 330.861C234.785 334.303 233.233 337.922 231.457 341.422C229.113 346.038 230.927 350.291 232.782 354.351C236.111 361.637 239.646 368.909 244.842 375.05C247.957 378.732 251.948 381.672 255.543 384.948C256.013 385.377 256.468 385.823 256.931 386.261C256.347 386.378 255.756 386.624 255.182 386.586C253.379 386.467 251.581 386.25 249.784 386.044C249.599 386.022 249.323 385.85 249.279 385.694C247.518 379.478 244.076 377.881 237.701 380.771C235.679 381.687 234.075 383.532 232.292 384.967C231.935 385.255 231.677 385.82 231.301 385.897C230.527 386.053 229.704 385.966 228.9 385.979C229.224 385.338 229.446 384.613 229.889 384.069C232.794 380.51 236.398 378.185 241.092 377.721C242.074 377.624 243.574 377.871 242.093 375.782C238.38 370.545 237.42 370.002 231.46 371.963C230.246 372.362 229.067 372.869 227.733 373.326C227.08 373.142 226.553 372.984 226.056 372.759C225.871 372.675 225.756 372.436 225.609 372.267C228.209 371.221 227.271 368.608 227.413 366.94C227.686 363.751 229.491 361.479 230.693 358.831C230.984 358.192 231.065 357.302 230.88 356.627C230.04 353.574 228.742 350.612 228.221 347.515C227.324 342.175 230.22 337.795 232.466 333.267C234.558 329.047 237.743 325.908 241.159 322.739C244.286 319.838 246.545 316.002 249.18 312.573C249.93 311.597 250.658 310.603 251.396 309.618C250.217 309.452 249.035 309.301 247.859 309.115C246.826 308.952 245.799 308.595 244.768 308.59C235.085 308.549 225.395 308.782 215.72 308.505C206.166 308.231 196.62 307.541 187.084 306.849C184.612 306.67 182.175 305.853 179.756 305.203C179.209 305.057 178.803 304.386 178.333 303.957C178.924 303.648 179.546 303.029 180.101 303.085C182.543 303.329 184.956 303.85 187.396 304.125C206.208 306.243 225.099 305.781 243.975 305.823C246.482 305.829 248.996 306.091 251.49 306.377C253.336 306.589 254.232 305.712 255.003 304.184C255.817 302.57 256.813 301.013 257.953 299.613C258.425 299.033 259.455 298.808 260.275 298.652C260.693 298.572 261.208 299.001 261.679 299.2ZM324.101 361.149C324.404 361.729 324.83 362.276 324.993 362.893C326.424 368.323 324.992 373.609 324.123 378.922C323.854 380.565 323.678 382.227 323.321 383.849C323.15 384.622 322.652 385.323 322.302 386.057C321.914 385.269 321.115 384.429 321.209 383.704C321.589 380.778 322.277 377.893 322.777 374.98C322.915 374.175 322.798 373.325 322.798 372.219C322.798 369.086 322.708 366.225 322.858 363.376C322.897 362.614 323.666 361.89 324.101 361.149ZM227.456 373.326L226.979 373.732C223.636 376.574 220.356 379.525 220.347 384.613C220.347 384.911 219.573 385.489 219.197 385.46C215.353 385.162 211.518 384.767 207.68 384.392C207.335 384.359 206.995 384.272 206.652 384.21C207.001 384.088 207.342 383.918 207.702 383.85C210.693 383.284 213.694 382.768 216.676 382.159C217.394 382.012 218.053 381.573 218.739 381.268C218.155 380.897 217.532 380.161 216.996 380.219C214.8 380.46 212.589 380.792 210.463 381.379C208.339 381.966 206.34 383 204.222 383.622C203.434 383.853 202.466 383.471 201.58 383.369C202.136 382.695 202.557 381.688 203.269 381.399C208.286 379.359 213.209 376.791 218.977 378.167C219.494 378.29 220.501 377.387 220.915 376.731C222.425 374.334 224.255 372.722 227.456 373.326ZM319.866 376.76C320.106 377.12 320.585 377.513 320.541 377.834C320.368 379.111 320.03 380.366 319.615 381.767C319.348 382.403 319.294 382.939 319.068 383.387C318.872 383.775 318.481 384.064 318.175 384.396C317.899 383.907 317.31 383.349 317.4 382.94C317.802 381.111 318.365 379.313 318.953 377.531C319.059 377.209 319.552 377.014 319.866 376.76ZM164.118 375.691C161.928 376.329 159.771 377.247 157.795 378.379C156.758 378.974 154.92 379.631 156.469 381.629C158.693 381.813 160.916 382.004 163.14 382.18C165.726 382.385 168.315 382.553 170.898 382.78C174.709 383.114 178.512 383.543 182.326 383.807C183.434 383.884 184.175 383.716 183.114 382.161C179.526 376.904 170.822 373.739 164.118 375.691ZM225.868 362.467C225.588 362.976 225.411 363.595 225.008 363.974C223.584 365.313 222.031 366.518 220.639 367.887C220.195 368.325 220.16 369.15 219.834 369.74C219.094 371.075 218.666 372.741 216.371 371.858C214.514 371.144 212.33 373.159 212.134 375.668C212.053 376.71 212.05 377.478 210.575 377.062C209.206 373.853 210.056 370.97 212.758 370.055C215.059 369.277 214.64 368.361 213.328 367.083C212.998 366.763 212.57 366.487 212.378 366.096C212.122 365.574 212.052 364.961 211.903 364.387C212.596 364.397 213.494 364.138 213.937 364.476C214.756 365.1 215.276 366.103 215.985 366.89C216.32 367.26 216.835 367.757 217.215 367.715C217.575 367.675 218.012 367.054 218.161 366.604C219.103 363.757 221.569 362.74 224.009 361.777C224.466 361.596 225.24 362.216 225.868 362.467ZM160.206 355.476C160.621 356.42 161.15 357.231 161.132 358.031C161.034 362.56 160.849 367.088 160.574 371.61C160.532 372.302 159.938 373.016 159.461 373.608C159.159 373.982 158.598 374.149 158.154 374.409C158.054 373.914 157.853 373.416 157.869 372.925L158.027 367.752C158.137 364.304 158.266 360.857 158.477 357.415C158.521 356.692 159.514 356.028 160.206 355.476ZM164.137 303.069C164.691 303.207 165.117 303.859 165.602 304.273C165.027 304.597 164.447 305.21 163.876 305.201C156.935 305.098 151.564 308.382 146.967 313.129C141.013 319.278 135.214 325.578 129.209 331.952C127.116 334.414 125.127 336.711 123.212 339.068C119.24 343.958 115.319 348.89 111.355 353.786C108.23 357.645 104.931 361.373 101.989 365.365C100.542 367.327 99.7473 369.765 98.6137 371.965C98.3553 372.467 97.9156 372.875 97.5593 373.326C97.1776 372.808 96.5426 372.33 96.4552 371.766C95.8889 368.116 98.3634 365.617 100.308 363.178C107.912 353.641 115.645 344.202 123.551 334.914C128.886 328.647 134.457 322.564 140.179 316.647C143.934 312.764 147.863 308.924 152.246 305.815C155.595 303.441 159.731 301.967 164.137 303.069ZM171.027 355.227C171.248 355.688 171.639 356.14 171.664 356.612C171.894 360.954 172.102 365.299 172.2 369.645C172.215 370.312 171.641 370.992 171.34 371.666C170.719 371.019 170.049 370.411 169.505 369.705C169.327 369.474 169.477 368.99 169.477 368.345C169.477 364.752 169.468 361.436 169.485 358.12C169.488 357.5 169.443 356.802 169.706 356.285C169.94 355.827 170.571 355.572 171.027 355.227ZM232.903 360.645C232.794 360.751 232.648 360.838 232.582 360.966C231.835 362.407 231.1 363.855 230.362 365.854C230.362 366.222 230.441 366.613 230.348 366.956C230.039 368.095 229.667 369.217 229.32 370.346C230.336 370.048 231.34 369.697 232.371 369.466C233.479 369.218 234.607 368.974 235.734 368.927C237.048 368.872 237.415 368.786 236.498 367.439C235.204 365.536 234.233 363.413 233.136 361.378C233.016 361.156 232.979 360.89 232.903 360.645ZM138.238 356.232C137.197 356.745 136.544 358.048 135.713 358.988C136.166 359.339 136.586 359.938 137.077 360.004C142.61 360.75 146.676 363.952 150.658 368.068C151.177 368.471 151.696 368.875 152.215 369.278C152.434 368.543 152.938 367.759 152.822 367.081C152.358 364.372 151.727 361.747 149.886 359.485C147.026 355.973 142.054 354.355 138.238 356.232ZM179.682 355.648C179.97 355.951 180.395 356.203 180.525 356.563C181.629 359.608 182.77 362.646 183.68 365.751C183.896 366.491 183.284 367.474 183.053 368.345C182.402 367.728 181.437 367.224 181.165 366.471C180.584 364.858 180.362 363.115 179.855 361.287C179.392 359.902 178.934 358.668 178.804 357.401C178.748 356.852 179.369 356.235 179.682 355.648ZM165.433 259.024C169.466 261.281 171.098 265.851 172.774 270.013C175.525 276.841 175.585 284.059 175.566 291.271C175.56 293.793 175.699 296.324 175.535 298.835C175.267 302.927 174.852 307.012 174.399 311.09C174.218 312.723 173.553 314.318 173.486 315.946C173.287 320.779 171.89 325.932 174.07 330.356C176.357 334.999 179.695 339.192 182.979 343.254C185.59 346.484 184.669 351.919 180.853 353.27C179.061 353.905 176.987 353.945 175.045 353.917C169.124 353.833 163.197 353.721 157.292 353.335C154.82 353.173 152.193 352.695 150.022 351.597C148.587 350.872 147.461 348.919 146.892 347.275C146.351 345.712 147.212 344.391 148.817 343.149C151.772 340.863 154.162 337.862 156.912 335.293C158.714 333.609 160.639 332.019 162.68 330.639C165.794 328.534 166.195 325.202 166.65 322.037C167.585 315.546 168.336 309.018 168.854 302.481C169.082 299.607 168.673 296.657 168.282 293.778C168.19 293.096 167.041 292.091 166.315 292.033C158.484 291.416 151.369 292.994 145.103 298.244C137.187 304.877 129.846 311.997 123.678 320.297C123.41 320.656 122.911 320.843 122.519 321.111C122.305 320.646 121.836 320.123 121.927 319.729C122.133 318.83 122.457 317.875 123.006 317.15C130.705 306.964 139.525 297.915 150.782 291.686C155.476 289.089 160.86 288.871 166.211 289.466C166.703 289.521 167.782 288.747 167.742 288.486C166.96 283.312 167.421 277.914 165.058 273.014C164.764 272.403 164.788 271.526 164.345 271.117C160.966 267.992 157.571 264.875 154.025 261.946C153.182 261.25 151.756 261.064 150.579 261C145.016 260.698 139.48 260.908 134.118 262.641C132.662 263.111 131.154 263.587 129.866 264.379C126.541 266.424 123.212 268.496 120.089 270.83C112.6 276.425 107.993 283.873 106.987 293.217C106.321 299.397 106.401 305.656 105.749 311.838C105.329 315.812 107.268 317.93 109.993 320.314C111.899 321.981 113.453 324.669 113.998 327.156C115.49 333.971 112.996 339.55 107.454 343.805C106.903 344.229 106.543 345.106 106.407 345.831C105.509 350.605 102.514 353.837 98.5033 356.077C97.1469 356.834 95.1518 356.882 93.5362 356.648C90.3358 356.185 87.811 357.198 85.7055 359.429C82.2104 363.132 77.6533 364.885 72.9309 365.976C69.0933 366.863 65.6683 365.145 63.352 362.052C58.8942 356.1 55.5655 349.622 56.0462 341.867C56.1577 340.069 56.7462 338.3 57.1152 336.241C58.6122 330.578 62.7601 329.168 67.6659 329.066C72.2152 328.971 76.7768 328.887 81.3137 329.142C82.6902 329.219 85.0726 330.381 85.115 331.149C85.1962 332.623 83.947 334.178 83.2067 335.678C83.1185 335.857 82.702 335.848 82.541 336.021C82.0223 336.581 81.5519 337.185 81.0628 337.772C81.7986 338 82.5265 338.26 83.2736 338.441C83.6222 338.525 84.0445 338.355 84.3707 338.473C85.8511 339.008 87.5113 338.959 88.2088 341.081C88.8683 343.087 87.7847 343.926 86.7724 345.09C86.2429 345.698 85.9179 346.485 85.5005 347.191C86.2535 347.231 87.0206 347.195 87.7556 347.332C88.5935 347.487 89.4027 347.797 90.2244 348.04C89.9657 348.736 89.7525 349.452 89.4385 350.121C88.8651 351.343 88.2321 352.537 87.624 353.743C89.9253 354.165 92.407 355.352 94.4932 354.861C100.048 353.553 104.599 347.986 104.225 342.307C103.921 337.715 104.8 332.977 104.023 328.5C102.638 320.52 102.846 312.531 103.203 304.59C103.503 297.899 103.238 290.886 106.434 284.682L106.869 283.838C109.984 277.784 113.183 271.706 119.531 268.134C121.87 266.819 124.17 265.368 126.261 263.697C129.923 260.771 134.282 259.667 138.67 258.928C143.926 258.043 149.297 257.26 154.525 259.316C155.237 259.596 156.013 259.912 156.541 260.432C160.072 263.913 164.276 267.002 166.806 271.115C168.913 274.539 169.593 279.147 169.888 283.302C170.253 288.465 170.554 293.56 171.535 298.684C172.16 301.943 171.45 305.514 171.025 308.906C170.493 313.152 169.171 317.343 169.035 321.585C168.838 327.684 165.636 331.641 161.233 335.15C158.158 337.601 155.183 340.179 152.247 342.794C152.102 342.922 152.671 344.407 153.042 344.47C156.003 344.971 159.003 345.236 161.974 345.685C162.664 345.79 163.288 346.327 163.942 346.665C163.257 347.065 162.517 347.879 161.897 347.796C158.351 347.323 154.835 346.628 151.304 346.034C150.873 345.962 150.136 345.894 150.026 346.093C149.767 346.561 149.526 347.45 149.768 347.709C150.609 348.605 151.557 349.733 152.65 349.994C155.294 350.625 158.035 351.051 160.751 351.136C166.127 351.304 171.512 351.176 176.893 351.19C179.154 351.196 181.132 350.675 182.01 348.319C182.788 346.23 181.272 345.047 180.046 343.759C175.661 339.153 171.713 334.135 170.781 327.711C170.233 323.933 170.824 319.955 171.18 316.092C171.542 312.153 172.583 308.258 172.724 304.321C172.983 297.105 172.932 289.869 172.759 282.647C172.592 275.659 170.722 268.957 166.445 263.476C164.449 260.919 160.842 259.499 157.781 257.921C153.619 255.777 149.18 254.232 144.385 254.902C135.662 256.12 127.219 258.559 120.313 264.128C115.918 267.673 111.901 272.001 108.715 276.662C102.929 285.124 97.8632 294.081 92.5482 302.862C88.4457 309.64 84.4348 316.474 80.3464 323.261C79.8022 324.164 79.124 325.028 78.3492 325.736C77.8749 326.17 77.098 326.273 76.4569 326.524C76.4998 325.764 76.2811 324.847 76.6277 324.268C79.0261 320.266 81.6107 316.376 84.0064 312.372C89.3985 303.361 95.0759 294.494 99.946 285.205C103.633 278.174 108.4 271.98 113.698 266.359C120.626 259.008 129.831 255.46 139.684 253.077C149.513 250.7 157.523 254.598 165.433 259.024ZM72.0177 331.286C71.7315 331.29 71.3647 331.62 71.2019 331.897C71.1184 332.039 71.3314 332.53 71.5321 332.639C74.5992 334.308 75.8516 337.207 77.0853 340.263C79.0852 345.217 79.5943 350.09 77.0414 355.337C76.603 355.983 76.1647 356.629 75.7264 357.274C75.5245 356.162 74.8553 354.874 75.1957 353.965C77.6081 347.518 75.242 337.883 69.8802 333.854C68.1315 332.54 66.228 331.41 63.6753 332.101C60.493 332.963 59.1367 337.115 58.7583 340.257C57.9356 347.085 60.2684 353.066 63.812 358.627C65.5127 361.295 67.6043 363.74 71.446 363.393C76.844 362.905 81.1959 360.149 85.4779 357.22C85.7488 357.035 85.7318 355.762 85.4257 355.511C83.7655 354.149 83.9585 353.03 85.5395 351.8C86.8738 350.762 86.7504 350.098 85.0436 349.486C82.2023 348.466 81.8741 346.674 84.0036 344.529C84.5497 343.978 85.4683 343.722 85.8435 343.105C86.1018 342.679 85.933 341.619 85.5607 341.293C85.195 340.974 84.3198 341.302 83.6882 341.209C81.3604 340.867 78.7095 340.263 78.2974 337.762C77.9141 335.435 80.3737 334.433 82.2467 333.455C82.6052 333.268 82.8387 332.842 83.1299 332.526C82.6523 332.104 82.1866 331.333 81.6952 331.316C78.4724 331.207 75.2438 331.244 72.0177 331.286ZM164.966 356.167C165.363 356.758 166.03 357.318 166.102 357.946C166.271 359.424 166.229 360.941 166.101 362.428C166.071 362.77 165.352 363.053 164.949 363.363C164.614 362.895 164.057 362.457 163.987 361.953C163.839 360.873 163.942 359.758 163.942 358.381C164.283 357.459 164.625 356.813 164.966 356.167ZM175.012 356.167C175.75 358.177 176.263 360.177 176.619 362.205C176.676 362.527 176.091 363.111 175.676 363.306C175.465 363.405 174.662 362.916 174.658 362.683C174.618 360.512 174.693 358.339 175.012 356.167ZM468.794 97.1378C469.505 97.4228 470.137 97.9018 470.844 98.2008C472.256 98.7988 473.672 99.7358 475.128 99.8208C480.002 100.105 483.86 101.599 485.607 106.655C485.787 107.178 487.037 107.388 487.825 107.631C489.711 108.211 491.727 108.489 493.49 109.316C496.61 110.779 497.059 112.384 496.08 115.745C495.684 117.106 494.788 118.68 497.745 118.834C500.649 118.986 501.716 121.009 502.224 124.125C502.411 125.275 503.392 126.721 504.412 127.235C508.497 129.291 509.019 130.108 508.239 134.856C508.138 135.473 508.2 136.137 508.296 136.762C508.613 138.837 509.182 140.893 509.284 142.975C509.451 146.412 509.329 149.863 509.329 153.584C507.479 160.814 503.159 166.45 496.941 169.147C491.814 171.37 490.397 175.876 487.174 179.211C482.898 183.637 478.651 188.107 474.135 192.28C471.029 195.15 467.705 197.919 464.076 200.048C460.734 202.01 456.967 203.592 453.186 204.383C447.387 205.596 443.362 202.024 439.909 197.891C436.601 193.932 433.316 189.949 430.134 185.887C427.481 182.501 425.005 178.974 422.414 175.538C422.017 175.012 421.422 174.636 420.919 174.19C420.684 174.831 420.355 175.454 420.229 176.115C418.886 183.168 417.152 190.014 410.976 194.655C409.6 195.689 411.031 196.292 411.513 196.56C415.4 198.726 419.459 200.599 423.257 202.904C425.871 204.491 428.167 206.605 430.562 208.537C430.8 208.729 430.904 209.355 430.786 209.675C429.322 213.679 427.885 217.696 426.28 221.644C424.751 225.406 421.823 227.831 418.197 229.503C414.931 231.01 412.175 229.154 411.903 225.301C411.574 220.655 411.412 215.978 410.737 211.379C410.094 207.007 408.235 203.197 403.261 202.271C401.888 202.015 400.381 202.066 399.002 202.326C389.395 204.139 380.373 207.527 371.992 212.594C365.061 216.786 358.022 220.807 351.204 225.174C347.287 227.683 343.697 230.707 339.997 233.547C338.662 234.572 338.471 235.567 339.606 237.195C343.297 242.49 344.954 248.556 345.477 254.941C345.601 256.453 345.471 257.987 345.645 259.489C345.676 259.764 346.867 260.272 347.099 260.101C352.095 256.391 358.054 255.28 363.865 253.775C367.868 252.739 371.854 251.585 375.912 250.826C378.385 250.363 380.984 250.433 383.515 250.531C384.146 250.556 384.736 251.616 385.344 252.2C384.69 252.539 384.06 253.107 383.378 253.178C379.111 253.621 374.831 253.941 370.56 254.342C370.124 254.383 369.714 254.694 369.292 254.879C369.732 255.247 370.149 255.648 370.618 255.975C371.263 256.424 371.946 256.818 372.613 257.236C371.665 257.556 370.732 257.949 369.759 258.157C369.429 258.227 369.015 257.756 368.61 257.659C367.793 257.464 366.955 257.356 366.126 257.212C366.349 257.907 366.682 258.588 366.777 259.3C367.279 263.069 368.16 266.86 368.039 270.616C367.95 273.336 366.606 276.051 365.605 278.686C365.276 279.553 364.268 280.163 363.571 280.891C363.531 279.794 363.097 278.51 363.516 277.632C365.641 273.175 365.62 268.457 365.34 263.753C365.232 261.937 364.439 260.08 363.612 258.413C362.89 256.958 361.482 256.737 359.882 257.338C355.888 258.838 351.806 260.113 347.861 261.724C346.363 262.335 345.189 263.696 343.784 264.583C341.015 266.333 338.23 268.067 335.354 269.628C334.701 269.983 333.649 269.604 332.781 269.563C333.224 268.922 333.555 268.141 334.138 267.673C335 266.981 335.979 266.321 337.017 265.977C342.949 264.017 343.754 261.052 343.229 256.508C342.523 250.401 341.196 244.475 337.846 239.09C336.026 236.163 334.313 234.087 330.418 234.284C327.841 234.414 325.615 235.299 324.875 237.296C324.316 238.803 325.169 241.197 326.074 242.817C328.792 247.68 331.934 252.27 333.372 257.801C334.588 262.479 333.537 265.903 329.27 268.14C321.001 272.476 314.859 279.093 309.554 286.537C306.189 291.259 303.194 296.247 300.079 301.144C299.413 302.191 298.536 302.957 300.875 303.733C304.211 304.839 305.229 312.016 302.647 315.574C301.483 317.176 301.835 317.385 303.29 318.184C310.264 322.014 316.429 326.779 320.959 333.505C323.274 336.941 326.257 339.935 328.491 343.416C331.729 348.463 333.045 354.16 332.726 360.172C332.69 360.864 332.177 361.532 331.885 362.21C331.624 361.489 331.09 360.746 331.144 360.048C331.502 355.428 329.622 351.23 328.139 347.149C326.96 343.904 324.122 341.231 321.888 338.409C319.229 335.053 316.73 331.48 313.605 328.606C310.347 325.61 306.427 323.333 302.794 320.744C301.941 320.135 301.16 319.29 300.207 318.987C298.904 318.572 297.38 318.181 296.106 318.467C292.426 319.292 288.839 320.406 286.852 324.188C286.532 324.798 284.73 325.39 284.35 325.082C282.301 323.422 281.239 324.738 280.031 326.103C279.853 326.305 279.338 326.329 279.015 326.262C276.825 325.802 275.984 327.314 275.206 328.86C274.377 330.509 273.655 332.981 271.511 332.172C270.156 331.66 269.38 329.32 268.614 327.675C268.261 326.917 268.792 325.768 268.486 324.961C268.191 324.183 267.261 322.998 266.738 323.061C264.026 323.388 263.954 321.4 263.614 319.756C263.394 318.695 263.502 317.546 263.588 316.446C263.74 314.529 263.372 313.351 261.307 312.293C259.199 311.212 259.011 308.362 260.056 306.404C262.249 302.297 264.468 298.046 267.508 294.584C272.599 288.786 278.178 283.383 283.846 278.132C292.186 270.406 300.647 262.795 309.34 255.471C312.95 252.428 317.276 250.228 321.321 247.715C321.746 247.451 322.473 247.671 323.06 247.666C322.863 248.242 322.842 249.047 322.44 249.356C319.801 251.385 317.021 253.232 314.398 255.281C310.477 258.344 306.503 261.365 302.808 264.689C295.176 271.557 287.874 278.799 280.13 285.535C273.728 291.104 267.905 297.079 263.617 304.426C262.813 305.804 262.182 307.429 262.07 308.983C262.032 309.514 263.917 310.8 264.775 310.68C270.726 309.849 275.739 307.018 280.064 302.886C281.695 301.329 283.333 299.75 285.148 298.429C286.069 297.758 287.696 297.014 288.47 297.393C290.355 298.316 290.639 300.377 290.509 302.385C290.392 304.179 290.207 305.972 290.182 307.767C290.176 308.206 290.677 308.651 290.946 309.094C291.415 308.768 292.047 308.545 292.331 308.101C296.425 301.687 300.293 295.121 304.574 288.837C311.044 279.34 318.38 270.674 328.945 265.338C330.947 264.326 331.815 262.655 331.224 259.899C330.053 254.438 327.205 249.887 324.461 245.248C323.053 242.867 321.612 240.488 322.07 237.678C322.621 234.302 325.869 231.766 329.612 231.678C331.537 231.633 333.47 232.15 335.407 232.314C336.276 232.387 337.393 232.541 338.009 232.107C344.098 227.82 349.891 223.075 356.19 219.134C363.968 214.27 371.952 209.638 380.222 205.691C385.65 203.101 391.733 201.872 397.543 200.103C398.707 199.749 400.014 199.856 401.164 199.474C401.942 199.216 402.897 198.618 403.19 197.925C404.567 194.673 407.088 192.91 410.263 191.726C411.116 191.408 412.087 190.621 412.417 189.81C414.733 184.127 416.917 178.389 419.04 172.632C419.136 172.372 418.17 171.307 417.827 171.366C414.839 171.88 412.286 171.645 410.907 168.409C410.795 168.146 410.147 168.075 409.733 167.982C404.325 166.767 402.176 160.585 405.583 156.238C405.969 155.747 406.106 154.497 405.768 154.091C403.298 151.125 403.122 147.524 403.786 144.205C404.226 142.004 406.213 140.024 407.771 138.166C408.788 136.955 409.216 136.263 408.321 134.615C407.225 132.594 405.841 130.685 406.257 127.849C407.094 122.14 408.161 121.082 414.392 119.344C416.098 118.868 416.682 118.276 416.945 116.56C418.232 108.173 420.196 105.055 428.734 102.657C431.626 101.845 434.37 102.028 437.195 103.178C438.083 103.539 439.641 103.061 440.541 102.449C444.073 100.047 447.629 98.4578 452.073 99.7988C453.127 100.117 454.695 99.5008 455.762 98.8678C459.895 96.4188 464.13 95.2668 468.794 97.1378ZM154.428 354.507C154.832 354.974 155.303 355.402 155.611 355.925C155.77 356.195 155.639 356.635 155.639 357.274C155.391 358.537 155.143 359.524 154.894 360.51C154.405 359.59 153.818 358.706 153.462 357.736C153.257 357.176 153.296 356.442 153.465 355.855C153.608 355.355 154.094 354.953 154.428 354.507ZM191.188 326.234C195.736 327.358 200.4 328.01 204.964 329.081C208.772 329.974 211.472 332.638 213.721 335.637C216.007 338.687 216.297 338.744 219.66 337.349C221.786 336.468 224.155 336.089 226.454 335.77C227.118 335.678 227.918 336.58 228.656 337.025C227.869 337.502 227.053 338.427 226.302 338.377C223.246 338.171 220.5 339.125 218.121 340.726C213.931 343.545 209.228 345.977 207.399 351.216C206.945 352.515 206.925 353.962 206.525 355.286C206.307 356.008 205.711 356.616 205.285 357.274C204.973 356.703 204.437 356.148 204.392 355.556C204.288 354.166 203.871 352.336 204.562 351.442C206.213 349.305 204.763 348.309 203.495 347.352C201.061 345.516 198.5 343.81 194.938 343.99L194.168 343.991C191.369 343.999 188.843 344.156 187.318 346.883C187.236 347.031 186.941 347.06 186.746 347.145C186.355 346.2 185.896 345.273 185.636 344.294C185.59 344.122 186.363 343.703 186.785 343.441C193.134 339.497 199.374 341.026 204.463 345.037C206.035 346.276 206.819 347.542 208.292 344.907C209.045 343.561 210.779 342.693 212.194 341.807C213.597 340.929 213.592 340.301 212.815 338.78C210.223 333.708 205.548 331.587 200.62 330.272C196.391 329.143 191.891 328.662 187.503 328.614C184.014 328.575 180.328 328.95 177.33 331.357C177.174 331.482 176.534 331.004 176.119 330.807C176.867 329.749 177.412 328.057 178.397 327.743L179.222 327.482C183.078 326.266 186.979 325.193 191.188 326.234ZM255.387 332.819C260.309 337.199 263.313 343.005 266.227 348.759C266.996 350.277 266.741 352.749 264.562 353.728C262.848 354.498 261.323 353.941 260.029 352.408C258.584 350.696 257.102 348.778 254.328 349.48C254.237 349.503 253.73 348.682 253.83 348.537C255.526 346.057 254.211 344.19 252.759 342.234C252.353 341.686 252.474 340.748 252.353 339.989C253.058 340.225 254.051 340.244 254.421 340.733C256.629 343.653 258.684 346.687 260.814 349.667C261.179 350.178 261.59 350.708 262.102 351.047C262.509 351.317 263.384 351.561 263.551 351.373C263.896 350.983 264.188 350.177 264.006 349.756C263.431 348.427 262.628 347.196 261.774 345.789C259.554 342.462 257.516 339.244 255.356 336.109C254.886 335.426 254.044 334.885 253.257 334.57C252.531 334.28 251.649 334.381 250.836 334.31C250.838 335.079 250.614 335.94 250.885 336.598C251.665 338.491 251.406 340.152 250.091 341.629C249.894 341.85 248.825 341.691 248.816 341.624C248.52 339.302 247.776 336.872 248.191 334.662C248.912 330.822 252.235 330.013 255.387 332.819ZM289.901 336.326C290.101 337.522 291.357 338.539 292.149 339.64C292.246 339.775 292.283 339.952 292.356 340.105C293.027 341.513 293.713 341.691 295.294 340.93C297.111 340.056 299.386 339.437 301.332 339.692C304.166 340.063 306.867 341.373 309.663 342.148C310.331 342.333 311.336 342.214 311.826 341.804C312.137 341.544 312.04 340.284 311.678 339.829C310.717 338.622 309.514 337.608 308.13 336.241C307.335 336.737 305.174 334.993 305.719 337.74C305.826 338.275 305.56 338.884 305.466 339.458C304.956 339.202 304.174 339.076 303.98 338.67C302.468 335.501 299.301 335.075 296.512 334.066C295.108 333.558 289.744 335.39 289.901 336.326ZM106.255 320.19C106.111 321.02 105.967 321.85 105.824 323.234C106.927 325.813 107.829 328.503 109.183 330.943C110.922 334.079 109.542 336.449 107.882 338.913C107.543 339.417 107.399 340.052 107.164 340.626C107.739 340.265 108.419 340.004 108.871 339.527C112.987 335.183 113.254 325.659 108.128 321.663C107.502 321.175 106.879 320.681 106.255 320.19ZM333.976 321.85C336.604 322.147 338.888 325.812 339.479 329.327C340.413 334.876 333.906 339.525 327.918 336.103C324.896 333.591 323.765 330.493 324.685 326.942C325.855 322.424 328.309 321.209 333.976 321.85ZM106.683 332.92C106.489 333.658 106.295 334.396 105.824 335.411L106.525 336.795C106.845 336.511 107.389 336.263 107.44 335.937C107.572 335.103 107.529 334.23 107.448 333.384C107.431 333.206 106.95 333.074 106.683 332.92ZM331.351 324.577C328.417 324.739 326.885 326.094 326.672 329.139C326.517 331.36 329.15 334.585 331.31 334.553C336.714 334.473 337.585 332.437 336.082 326.555C334.931 324.871 333.337 324.467 331.351 324.577ZM266.34 319.445C266.714 319.878 267.036 320.618 267.47 320.69C269.332 320.999 270.481 321.927 270.764 323.816C270.972 325.208 271.079 326.618 271.345 327.998C271.488 328.737 271.87 329.431 272.145 330.145C272.424 329.438 272.764 328.748 272.971 328.02C273.694 325.474 274.407 323.61 277.908 323.253C280.26 323.013 282.493 320.996 285.249 322.026C285.446 322.1 285.74 321.915 286.266 321.573C286.614 321.183 286.962 320.793 287.309 320.402C286.771 320.147 286.223 319.656 285.696 319.678C283.653 319.76 281.556 319.761 279.588 320.241C275.571 321.22 271.754 320.855 267.958 319.358C267.501 319.178 266.883 319.406 266.34 319.445ZM155.346 308.582C155.976 308.832 156.729 308.947 157.198 309.374C157.589 309.731 157.782 310.441 157.83 311.015C158.065 313.793 158.222 316.577 158.407 319.636C158.591 321.865 158.793 323.816 158.925 325.772C158.936 325.924 158.323 326.31 158.222 326.244C157.691 325.901 156.879 325.503 156.803 325.023C156.322 321.967 156.044 318.878 155.625 315.811C155.389 314.086 154.918 312.39 154.742 310.662C154.674 309.996 155.129 309.277 155.346 308.582ZM452.228 206.852C453.532 207.6 454.806 209.472 454.935 210.946C455.13 213.184 456.038 213.428 457.847 213.386C464.822 213.226 470.372 216.676 475.49 220.836C479.486 224.084 483.359 227.529 486.956 231.209C491.633 235.994 496.43 240.771 500.353 246.151C504.681 252.086 502.295 255.86 497.129 259.817C491.785 263.91 486.116 267.577 480.767 271.664C479.398 272.71 478.441 274.372 479.741 276.581C482.407 281.11 488.909 283.49 493.035 280.811C494.704 279.727 495.797 277.754 497.29 276.048C501.363 270.916 506.893 268.036 512.179 264.859C515.645 262.775 516.668 261.989 514.216 258.015C512.511 255.252 510.718 251.875 506.326 252.617C505.719 252.72 505.009 252.217 504.348 251.995C505.025 251.295 505.6 250.161 506.398 249.974C509.032 249.354 511.501 250.344 513.055 252.364C515.039 254.942 516.846 257.789 518.006 260.799C518.441 261.927 517.274 264.404 516.101 265.29C512.095 268.314 507.656 270.761 503.595 273.719C501.472 275.266 499.76 277.392 497.959 279.345C497.771 279.549 498.107 280.717 498.427 280.839C506.347 283.846 514.32 286.582 521.45 291.466C527.098 295.335 533.325 298.361 539.354 301.654C539.519 301.745 540.735 300.651 540.807 300.033C541.012 298.273 540.717 296.454 540.914 294.692C541.278 291.449 540.302 288.964 537.747 286.833C531.135 281.318 524.655 275.646 518.126 270.033C517.847 269.793 517.519 269.557 517.359 269.244C517.039 268.622 516.819 267.949 516.558 267.296C517.449 267.287 518.643 266.898 519.182 267.329C522.958 270.345 526.645 273.479 530.27 276.677C533.135 279.205 535.868 281.883 538.67 284.483C538.958 284.751 539.317 284.943 539.643 285.171C539.871 284.712 540.311 284.242 540.289 283.795C540.189 281.806 539.81 279.824 539.812 277.839C539.815 275.794 540.385 273.737 540.284 271.706C539.826 262.521 539.124 253.348 538.704 244.162C538.484 239.372 540.997 236.155 545.531 234.379C551.082 232.205 556.786 230.869 562.749 230.499C570.182 230.039 577.612 228.91 585.031 229.003C592.482 229.096 599.917 230.349 607.362 231.07C611.45 231.466 615.542 231.811 619.633 232.183C627.721 232.919 635.824 233.544 643.886 234.502C645.331 234.674 646.964 235.965 647.902 237.2C650.697 240.88 651.963 245.092 652.234 249.809C652.531 254.971 653.653 260.083 654.328 265.228C654.63 267.535 654.792 269.866 654.888 272.192C655.288 281.816 655.997 291.447 655.861 301.065C655.791 306.051 654.232 311.024 653.273 315.988C652.746 318.716 650.595 319.769 648.198 320.153C643.928 320.837 639.615 321.25 635.332 321.858C609.614 325.509 583.736 323.472 557.933 324.118C546.91 324.395 536.973 321.468 527.477 316.049C522.664 313.303 518.654 310.13 517.365 304.605C516.756 301.993 516.153 298.993 518.665 296.813C519.325 296.24 520.385 296.067 521.295 295.879C521.613 295.813 522.036 296.253 522.41 296.463C522.22 296.789 522.102 297.208 521.826 297.426C519.818 299.011 520.045 300.363 521.866 302.069C526.713 306.611 532.755 309.04 538.573 311.884C539.108 312.146 539.654 312.396 540.215 312.592C540.575 312.717 541.167 312.915 541.311 312.76C541.608 312.44 541.797 311.909 541.805 311.461C541.813 310.966 541.376 310.43 541.462 309.974C542.221 305.99 539.882 304.52 536.707 302.858C527.661 298.121 518.863 292.909 509.962 287.894C507.801 286.675 505.585 286.007 503.179 287.292C502.813 287.487 502.327 287.523 501.897 287.523C491.197 287.535 480.494 287.672 469.796 287.487C461.735 287.348 453.685 286.684 445.624 286.453C435.187 286.155 424.746 285.998 414.305 285.89C405.635 285.801 396.963 285.931 388.292 285.86C370.749 285.717 353.206 285.576 335.665 285.276C330.186 285.182 324.712 284.631 319.247 284.16C318.385 284.085 317.583 283.318 316.753 282.872C317.634 282.396 318.523 281.491 319.394 281.508C333.541 281.787 347.686 282.187 361.831 282.545C363.614 282.59 365.4 282.533 367.184 282.554C382.236 282.734 397.288 282.896 412.339 283.125C415.433 283.172 418.522 283.479 421.615 283.653C422.165 283.684 422.805 283.821 423.245 283.597C423.639 283.396 423.816 282.766 424.089 282.326C423.684 282.217 423.189 281.9 422.886 282.03C420.35 283.118 420.895 281.984 421.145 280.148C421.854 274.96 422.382 269.841 420.933 264.515C419.796 260.336 420.991 255.872 422.535 251.731C424.084 247.576 425.706 243.448 427.187 239.27C427.46 238.501 427.211 237.547 427.202 236.679C426.561 237.09 425.937 237.53 425.275 237.904C424.522 238.328 423.736 238.692 422.964 239.083C422.97 238.127 422.69 237.051 423.029 236.233C425.183 231.037 427.538 225.924 429.666 220.717C430.087 219.688 429.833 218.373 429.846 217.189C429.858 216.137 429.564 215.017 429.83 214.042C430.898 210.133 433.245 209.054 437.317 210.24C441.256 211.388 442.972 213.737 441.119 217.651C439.452 221.172 440.001 224.074 441.187 227.427C443.467 233.876 445.35 240.463 447.47 246.969C449.342 252.713 448.529 258.29 446.181 263.614C443.313 270.119 440.046 276.439 435.163 281.753C434.842 282.102 434.785 282.694 434.606 283.174C435.144 283.335 435.681 283.629 436.221 283.636C439.48 283.68 442.743 283.594 446.001 283.672C451.553 283.805 457.102 284.038 462.653 284.209C469.034 284.405 475.416 284.555 481.795 284.785C483.291 284.838 484.777 285.158 486.273 285.298C486.565 285.325 486.883 285.085 487.189 284.968C486.926 284.716 486.696 284.411 486.394 284.22C483.912 282.649 481.213 281.343 478.975 279.482C476.193 277.17 476.106 275.407 477.497 271.963C477.648 271.59 477.164 270.574 476.765 270.427C473.559 269.25 470.328 268.119 467.052 267.155C464.292 266.344 462.494 268.048 460.78 269.892C460.282 270.428 459.499 270.699 458.847 271.091C458.885 270.122 458.612 268.993 459.013 268.209C460.93 264.457 464.882 263.896 470.054 265.692C472.957 266.701 475.827 267.833 478.786 268.633C479.628 268.861 480.89 268.344 481.69 267.783C485.854 264.864 489.97 261.872 494.02 258.796C495.812 257.436 497.582 255.97 499.046 254.279C500.64 252.437 499.97 250.375 498.79 248.488C494.017 240.856 487.184 235.166 480.629 229.212C478.14 226.952 475.76 224.568 473.207 222.385C468.684 218.518 463.409 216.233 457.491 215.606C454.715 215.312 453.919 216.364 453.416 220.114C452.903 223.949 452.418 227.793 451.698 231.591C451.506 232.605 450.694 233.949 449.83 234.289C448.315 234.886 447.275 233.875 446.596 232.325C445.297 229.355 443.625 226.544 442.392 223.55C440.632 219.274 442.725 213.415 446.755 210.588C447.411 210.127 448.2 209.678 448.568 209.022C449.418 207.507 450.555 205.893 452.228 206.852ZM347.393 316.348C349.495 316.817 350.385 318.482 349.824 320.422C349.537 321.415 348.259 322.121 347.152 322.957C344.225 322.782 343.062 321.526 343.278 319.073C343.482 316.751 344.813 315.772 347.393 316.348ZM589.269 231.674C581.765 231.907 574.271 232.478 566.767 232.702C560.399 232.891 554.178 233.862 548.251 236.114C543.533 237.906 540.864 239.301 541.413 245.294C542.05 252.249 542.66 259.21 543.036 266.182C543.195 269.13 542.553 272.113 542.578 275.077C542.619 279.888 542.914 284.697 543.092 289.508C543.283 294.686 543.433 299.867 543.659 305.044C543.773 307.644 544.15 310.238 544.161 312.836C544.172 315.261 542.475 316.632 540.559 315.645C533.995 312.266 526.798 309.982 521.273 304.755C520.973 304.471 520.528 304.34 520.151 304.138C520.08 304.631 519.765 305.329 519.978 305.583C521.779 307.731 523.336 310.339 525.618 311.77C529.868 314.433 534.534 316.444 539.074 318.626C540.835 319.472 542.699 320.555 544.562 320.654C552.127 321.053 559.71 321.291 567.285 321.26C584.174 321.192 601.067 321.138 617.947 320.657C626.875 320.403 635.787 319.364 644.688 318.49C649.516 318.016 651.498 316.312 652.069 311.914C652.718 306.908 653.18 301.837 653.161 296.797C653.137 290.956 652.537 285.114 652.125 279.277C651.607 271.944 651.104 264.608 650.444 257.286C650.048 252.891 649.503 248.499 648.773 244.148C648.072 239.973 645.06 236.953 641.694 236.612C637.976 236.235 634.259 235.838 630.536 235.51C621.9 234.75 613.258 234.063 604.626 233.262C602.641 233.078 600.688 232.551 598.167 232.182C595.2 231.998 592.227 231.582 589.269 231.674ZM297.669 305.886C296.658 306.238 296.019 307.559 295.109 308.319C293.833 309.384 292.573 310.554 291.11 311.29C287.429 313.142 283.448 313.624 279.336 313.6C275.455 313.577 271.571 313.906 267.688 314.051C267.246 314.068 266.798 313.896 266.353 313.812C266.475 314.311 266.548 314.828 266.726 315.306C267.587 317.614 269.767 317.816 271.651 317.921C280.613 318.419 289.419 317.086 298.14 315.174C300.175 314.728 301.759 313.628 301.233 311.05C301.089 310.342 301.211 309.58 301.211 308.289C300.872 306.237 299.592 305.214 297.669 305.886ZM286.067 306.971C281.604 307.083 277.324 308.074 273.383 310.25C272.973 310.476 272.743 311.027 272.429 311.427C272.881 311.58 273.348 311.898 273.784 311.861C277.678 311.529 281.582 311.235 285.447 310.683C286.343 310.555 287.104 309.481 287.927 308.289C287.306 307.828 286.676 306.956 286.067 306.971ZM287.901 299.96C287.14 300.37 286.232 300.633 285.649 301.219C284.484 302.39 283.497 303.738 282.437 305.013C284.175 304.537 285.912 304.061 287.927 303.308C287.927 302.944 287.93 302.581 287.926 302.217C287.92 301.465 287.91 300.713 287.901 299.96ZM336.082 298.049C337.189 298.475 338.019 298.9 338.849 299.326C338.064 300.376 337.471 301.864 336.425 302.325C335.718 302.637 333.806 301.772 333.425 300.965C332.447 298.892 334.689 298.799 336.082 298.049ZM184.705 288.212C192.78 290.482 201.03 290.277 209.285 290.329C217.326 290.38 225.366 290.669 233.683 290.854C240.325 290.854 246.689 290.808 253.053 290.879C255.192 290.903 257.336 291.165 259.459 291.451C259.946 291.516 260.358 292.129 260.805 292.49C260.374 292.867 259.999 293.414 259.498 293.577C258.914 293.767 258.221 293.621 257.576 293.621C245.216 293.621 232.856 293.686 220.497 293.597C213.009 293.543 205.508 293.475 198.041 292.989C193.154 292.67 188.312 291.618 183.464 290.812C182.995 290.734 182.624 290.071 182.207 289.68C183.049 289.16 184.061 288.031 184.705 288.212ZM492.208 283.936C491.958 283.996 491.811 284.478 491.617 284.764C491.945 284.949 492.27 285.287 492.601 285.294C494.923 285.341 497.247 285.339 499.57 285.303C500.057 285.295 500.541 285.081 501.027 284.962C500.565 284.527 500.104 284.093 499.366 283.381C496.754 280.5 494.559 283.366 492.208 283.936ZM427.41 281.721L425.985 283.063C426.992 283.261 427.994 283.509 429.01 283.632C429.381 283.677 429.788 283.423 430.178 283.305C429.711 282.685 429.295 282.013 428.748 281.473C428.565 281.291 428.05 281.444 427.41 281.721ZM466.998 269.279C467.092 270.099 467.341 270.937 467.252 271.737C466.952 274.429 466.69 277.145 466.071 279.77C465.847 280.72 466.295 283.293 463.527 281.859C463.942 278.196 464.406 274.652 465.122 271.16C465.27 270.435 466.348 269.901 466.998 269.279ZM434.376 221.772C434 221.711 433.194 222.8 432.996 223.483C432.633 224.738 432.698 226.111 432.372 227.381C430.162 236.004 428.162 244.67 424.784 252.98C423.576 255.949 423.397 259.544 423.555 262.815C423.829 268.463 427.232 273.048 429.702 277.921C431.814 282.089 431.99 282.097 434.751 278.262C434.911 278.041 435.174 277.893 435.328 277.669L435.881 276.858C441.589 268.478 446.926 259.956 445.399 248.787C442.724 240.221 440.104 231.636 437.274 223.122C437.033 222.397 435.419 221.94 434.376 221.772ZM426.12 277.663C425.443 277.909 424.766 278.154 424.089 278.953C424.827 278.766 425.566 278.582 426.294 278.361C426.306 278.358 426.181 277.906 426.12 277.663ZM189.587 272.638C202.695 272.752 215.806 272.803 228.906 273.2C236.615 273.434 244.304 274.292 252.007 274.785C256.349 275.063 260.709 275.083 265.05 275.385C268.134 275.6 271.207 276.044 274.266 276.509C274.808 276.591 275.258 277.277 275.75 277.685C275.181 278.015 274.598 278.655 274.045 278.63C267.557 278.334 261.073 277.935 254.588 277.575C253.853 277.534 253.111 277.608 252.376 277.564C235.012 276.533 217.655 275.352 200.237 275.872C197.464 275.954 194.675 275.54 191.617 275.356C190.695 275.356 189.96 275.553 189.425 275.31C188.607 274.939 187.927 274.264 187.189 273.718C187.989 273.341 188.791 272.631 189.587 272.638ZM429.194 228.308C428.23 230.192 427.249 232.068 426.341 233.979C426.276 234.116 426.748 234.731 426.961 234.726C427.287 234.719 427.787 234.434 427.896 234.146C428.524 232.496 429.058 230.811 429.624 228.584C429.481 228.492 429.337 228.4 429.194 228.308ZM451.09 209.96C449.059 211.5 447.101 213.137 445.123 215.3C443.576 217.834 443.755 220.337 444.999 222.972C446.118 225.345 446.927 227.863 447.966 230.277C448.197 230.814 448.818 231.182 449.259 231.629C449.541 230.922 450.039 230.219 450.052 229.508C450.071 228.487 449.408 227.39 449.607 226.446C450.489 222.249 451.644 218.109 452.541 213.914C452.779 212.801 452.521 211.555 452.329 210.397C452.292 210.173 451.296 209.804 451.09 209.96ZM406.316 197.665C405.056 199.42 406.295 200.127 407.538 201.262C409.25 202.823 410.851 204.736 411.84 206.813C414.527 212.45 414.369 218.638 414.68 225.263C414.86 227.967 415.673 228.371 417.909 227.034C422.98 224.002 425.208 218.899 427.329 213.832C428.216 211.715 428.934 209.061 426.134 207.394C424.143 206.21 422.111 205.095 420.095 203.954C416.586 201.969 413.003 200.102 409.602 197.946C408.387 197.177 407.552 195.943 406.316 197.665ZM431.521 213.404C430.768 214.655 431.947 217.692 433.577 218.7C435.501 219.889 437.782 219.393 439.311 217.238C440.436 215.569 440.267 214.307 438.319 213.343C435.432 211.915 432.44 211.877 431.521 213.404ZM301.191 53.3078C305.269 54.1698 309.536 54.1388 313.718 54.5068C320.037 55.0608 326.367 55.5208 332.672 56.2078C335.672 56.5348 337.317 59.6228 337.236 63.3998C337.178 66.1168 337.499 68.8488 337.758 71.5638C338.061 74.7378 338.622 77.8918 338.821 81.0708C339.28 88.3828 339.526 95.7088 339.988 103.021C340.16 105.74 341.108 108.457 340.973 111.138C340.729 115.994 339.948 120.823 339.37 125.661C339.034 128.466 338.4 131.262 338.345 134.07C338.2 141.538 338.363 149.012 338.272 156.482C338.213 161.388 338.149 166.312 337.677 171.189C337.249 175.617 336.155 179.977 335.589 184.398C335.393 185.933 336.078 187.561 336.049 189.141C335.953 194.323 335.569 199.504 335.593 204.684C335.604 207.058 333.559 207.523 332.52 207.633C327.763 208.136 323.274 209.987 318.294 209.602C310.379 208.991 302.407 209.06 294.458 208.969C291.862 208.939 289.249 209.566 286.666 209.441C277.758 209.011 268.859 208.391 259.958 207.821C257.818 207.684 255.685 207.329 253.546 207.295C239.234 207.071 224.916 207.081 210.613 206.625C205.636 206.467 200.631 205.712 196.169 202.801C192.675 200.522 190.873 197.271 190.615 193.516C190.083 185.777 189.927 177.994 190.017 170.234C190.106 162.636 190.634 155.04 191.091 147.45C191.299 143.996 191.985 140.567 192.125 137.114C192.31 132.57 192.103 128.012 192.194 123.463C192.257 120.309 192.54 117.16 192.724 113.732C192.54 110.58 192.175 107.703 192.205 104.83C192.289 97.0338 192.517 89.2388 192.763 81.4458C192.785 80.7598 193.355 80.0908 193.671 79.4148C194.278 80.0928 195.43 80.7908 195.405 81.4448C195.216 86.3798 194.755 91.3028 194.465 96.2348C194.336 98.4338 194.351 100.645 194.394 102.849C194.554 110.89 194.848 118.929 194.9 126.97C194.928 131.32 194.568 135.672 194.385 140.022C194.015 148.816 193.689 157.612 193.263 166.403C192.97 172.434 192.346 178.455 192.247 184.486C192.191 187.831 192.623 191.252 193.346 194.526C194.375 199.188 197.926 201.722 202.28 202.761C205.622 203.559 209.143 203.639 212.594 203.937C215.646 204.2 218.711 204.451 221.771 204.467C224.276 204.48 226.785 203.957 229.289 203.987C236.869 204.078 244.448 204.298 252.026 204.516C256.747 204.652 261.485 204.667 266.182 205.102C277.095 206.115 287.999 206.998 298.98 206.755C306.848 206.58 314.727 206.874 322.592 206.645C325.696 206.555 328.783 205.646 331.861 205.029C332.388 204.924 333.233 204.43 333.25 204.081C333.379 201.561 333.293 199.032 333.349 196.508C333.455 191.742 333.493 186.971 333.784 182.216C333.989 178.868 334.616 175.548 334.962 172.207C335.385 168.122 335.922 164.033 336.022 159.937C336.117 156.022 335.565 152.095 335.569 148.174C335.573 144.008 335.719 139.824 336.125 135.679C336.693 129.881 337.857 124.129 338.195 118.324C338.438 114.157 339.133 109.88 337.777 105.723C337.668 105.39 337.753 104.995 337.742 104.629C337.558 98.6178 337.613 92.5868 337.119 86.6018C336.664 81.0888 335.562 75.6318 334.859 70.1358C334.563 67.8148 334.482 65.4578 334.439 63.1148C334.37 59.4118 333.434 58.5778 329.722 58.3498C322.473 57.9038 315.233 57.3088 307.995 56.7098C301.948 56.2088 295.918 55.4248 289.863 55.1448C287.087 55.0168 284.275 55.8598 281.466 56.1248C280.753 56.1918 279.99 55.7328 279.25 55.5158C279.652 54.9938 279.988 54.3948 280.479 53.9758C280.846 53.6628 281.397 53.4918 281.891 53.4138C288.315 52.4008 294.691 51.9328 301.191 53.3078ZM251.074 57.3538C258.576 57.3298 266.08 58.0058 273.583 58.3838C276.921 58.5518 280.254 58.8338 283.593 58.9188C292.648 59.1498 301.735 58.9158 310.748 59.6338C316.166 60.0648 321.742 60.5088 326.498 64.3568C330.508 67.6008 332.854 71.6548 333.737 76.3058C334.991 82.9128 335.405 89.6838 336.056 96.3978C336.387 99.8118 336.751 103.269 336.568 106.678C336.259 112.457 335.542 118.216 334.97 123.98C334.628 127.427 334.082 130.862 333.898 134.316C333.437 143.013 333.118 151.718 332.766 160.422C332.556 165.602 332.438 170.786 332.196 175.965C331.872 182.917 331.487 189.866 331.084 196.814C331.014 198.035 330.843 199.275 330.524 200.453C329.855 202.919 327.561 203.183 325.658 203.334C318.905 203.871 312.129 204.138 305.086 204.507C295.555 203.655 286.333 202.572 276.992 202.761C271.713 202.867 266.419 201.881 261.125 201.789C251.319 201.617 241.496 202.041 231.701 201.659C220.871 201.236 210.205 199.596 200.36 194.553C196.146 192.394 194.283 189.199 195.548 184.731C198.254 175.172 196.713 165.44 197.15 155.793C197.528 147.46 197.876 139.126 198.266 130.793C198.405 127.824 198.715 124.86 198.796 121.89C199.028 113.389 199.225 104.887 199.351 96.3838C199.433 90.8188 199.532 85.2448 199.296 79.6888C199.178 76.9358 198.293 74.2198 197.814 71.4778C197.674 70.6788 197.59 69.8128 197.759 69.0398C197.864 68.5638 198.497 68.2028 198.892 67.7908C199.235 68.1638 199.81 68.4968 199.883 68.9168C200.501 72.4578 201.365 76.0008 201.514 79.5708C201.897 88.7098 202.167 97.8658 202.073 107.011C201.976 116.454 201.445 125.894 201.008 135.331C200.738 141.179 200.153 147.013 199.951 152.862C199.646 161.729 199.616 170.605 199.313 179.472C199.25 181.337 198.61 183.208 198.063 185.024C197.17 187.992 197.706 189.497 200.217 191.268C205.132 194.734 210.788 196.098 216.531 197.328C224.718 199.081 233.006 198.949 241.306 199.001C251.316 199.063 261.328 199.253 271.334 199.554C278.657 199.775 285.972 200.263 293.291 200.632C300.609 201.001 307.925 201.549 315.248 201.665C318.962 201.723 322.713 201.143 326.391 200.518C327.166 200.386 328.158 198.835 328.251 197.862C328.632 193.899 328.732 189.907 328.879 185.923C329.092 180.189 329.239 174.453 329.445 168.719C329.602 164.367 329.665 160.005 330.027 155.668C330.582 149.022 331.382 142.397 331.997 135.756C332.042 135.272 331.496 134.342 331.113 134.277C329.184 133.951 327.216 133.667 325.265 133.687C312.612 133.816 299.958 134.21 287.307 134.149C278.511 134.106 269.717 133.473 260.923 133.105C256.479 132.919 252.037 132.694 247.592 132.561C240.29 132.341 232.978 132.337 225.686 131.949C219.815 131.636 213.958 130.968 208.111 130.312C203.579 129.804 202.357 127.614 203.741 123.347C204.093 122.262 203.735 120.961 203.829 119.77C203.859 119.4 204.307 119.065 204.563 118.714C204.86 119.024 205.339 119.291 205.425 119.652C205.978 121.976 207.663 122.881 209.783 123.126C214.991 123.727 220.196 124.467 225.423 124.749C232.715 125.143 240.026 125.295 247.329 125.316C252.971 125.332 258.615 124.807 264.257 124.838C277.464 124.91 290.672 125.081 303.875 125.39C311.567 125.57 319.252 126.071 326.937 126.503C327.603 126.541 328.237 127.149 328.886 127.492C328.289 127.887 327.687 128.632 327.095 128.623C319.852 128.521 312.61 128.262 305.367 128.139C300.48 128.056 295.589 128.156 290.701 128.117C269.193 127.946 247.678 128.012 226.181 127.416C219.52 127.232 212.529 127.534 206.229 124.279C205.92 124.119 205.207 124.257 205.004 124.513C204.804 124.764 204.844 125.508 205.076 125.744C205.753 126.431 206.513 127.366 207.356 127.503C211.623 128.201 215.914 129.013 220.219 129.164C231.112 129.547 242.02 129.509 252.916 129.816C259.779 130.01 266.633 130.518 273.49 130.892C280.163 131.256 286.835 131.916 293.509 131.935C305.7 131.97 317.892 131.611 330.084 131.467C331.536 131.45 332.146 131.095 332.251 129.487C332.702 122.607 333.271 115.733 333.879 108.865C334.596 100.781 333.778 92.7928 332.832 84.7718C332.223 79.6058 331.463 74.7058 328.405 70.2398C325.323 65.7378 321.281 63.1708 315.983 62.8548C307.014 62.3198 298.028 62.0428 289.048 61.7118C282.669 61.4768 276.287 61.3548 269.907 61.1438C259.267 60.7928 248.63 60.1928 237.988 60.1198C231.133 60.0728 224.271 60.7318 217.417 61.1658C213.044 61.4428 208.688 62.0068 204.313 62.2068C202.008 62.3118 200.422 62.9078 199.882 65.3518C199.772 65.8498 199.187 66.2428 198.82 66.6838C198.449 66.1558 197.837 65.6648 197.747 65.0918C197.34 62.5218 198.89 60.6118 201.86 60.0618C204.364 59.5968 206.89 59.1348 209.425 58.9708C214.229 58.6608 219.048 58.5728 223.86 58.3798C232.931 58.0158 242.002 57.3848 251.074 57.3538ZM459.015 134.556C456.743 137.001 453.982 138.268 450.381 139.193C447.582 139.003 444.642 139.899 442.149 137.654C439.606 135.363 438.087 136 436.759 139.252C436.115 140.828 435.066 142.438 433.763 143.494C432.203 144.759 430.069 145.29 428.377 146.427C426.019 148.013 423.488 148.399 421.024 147.358C419.179 146.578 419.249 147.48 419.104 148.661C418.825 150.93 420.388 152.218 421.681 153.689C423.315 155.548 424.757 157.326 423.628 160.241C422.792 162.398 422.742 164.874 422.442 167.221C422.013 170.577 423.777 173.025 425.71 175.56C432.165 184.029 438.316 192.769 446.923 199.274C448.348 200.351 450.56 201.325 452.168 201.032C455.75 200.38 459.659 199.601 462.583 197.618C471.486 191.581 479.571 184.469 486.126 175.858L486.422 175.472C488.661 172.572 491.224 169.562 489.476 165.211C489.096 164.265 489.484 162.896 489.803 161.805C490.62 159.019 491.958 156.333 492.379 153.502C492.642 151.728 491.877 149.636 491.036 147.957C490.747 147.381 488.794 147.743 487.653 147.467C486.162 147.106 484.705 146.583 483.266 146.042C482.311 145.683 481.428 144.833 480.487 144.792C477.771 144.674 475.979 143.536 474.375 141.288C472.805 139.088 471.005 136.724 467.39 138.001C465.549 138.651 463.746 137.803 462.918 135.691C461.996 133.337 460.657 132.79 459.015 134.556ZM200.556 185.882C201.186 186.013 202.004 185.937 202.415 186.31C204.96 188.618 207.919 189.382 211.314 189.639C217.484 190.106 223.619 191.041 229.769 191.771C230.133 191.814 230.506 191.772 230.875 191.777C245.184 191.961 259.494 192.115 273.802 192.344C279.814 192.441 285.822 192.851 291.832 192.843C298.58 192.834 305.327 192.501 312.075 192.336C314.791 192.27 317.511 192.212 320.224 192.294C320.884 192.314 321.527 192.9 322.178 193.226C321.346 193.665 320.538 194.412 319.676 194.484C317.477 194.665 315.254 194.516 313.041 194.548C300.945 194.723 288.849 194.992 276.753 195.061C271.39 195.092 266.025 194.614 260.66 194.583C256.956 194.562 253.25 195.079 249.547 195.058C244.182 195.027 238.818 194.739 233.455 194.522C233.063 194.506 232.684 194.175 232.023 193.99C222.988 194.032 214.319 193.099 205.804 191.125C203.981 190.702 202.385 189.109 200.826 187.876C200.447 187.576 200.631 186.565 200.556 185.882ZM448.01 181.059C452.316 181.767 455.508 182.516 459.642 183.504C461.601 183.972 462.012 185.368 460.546 186.869C455.878 191.644 449.209 192.001 445.35 185.201C444.267 183.294 445.961 181.999 448.01 181.059ZM313.377 163.483C315.951 164.656 316.962 166.225 316.112 168.854C315.008 172.264 314.056 175.731 312.776 179.074C312.201 180.574 310.99 181.83 309.929 183.335C303.243 188.923 295.956 191.573 287.354 189.604C286.041 189.304 284.574 189.386 283.226 189.597C280.033 190.098 277.449 188.515 274.77 187.3C274.214 187.048 273.467 186.001 273.609 185.615C274.962 181.947 275.991 178.022 278.071 174.788C281.946 168.764 287.834 165.599 295.069 165.217C299.532 164.982 304.004 164.904 308.463 164.621C310.116 164.516 311.229 162.503 313.377 163.483ZM251.46 137.663C255.256 137.64 259.135 138 262.828 138.858C265.883 139.567 266.092 142.675 266.302 145.286C266.486 147.577 266.34 149.895 266.34 152.477C266.156 160.425 266.001 168.097 265.769 175.767C265.699 178.092 265.501 180.421 265.212 182.73C264.857 185.567 261.73 187.758 257.78 187.879C254.278 187.987 250.714 188.272 247.29 187.744C245.605 187.484 243.882 185.805 242.687 184.349C239.458 180.412 240.998 175.651 240.93 171.19C240.925 170.862 241.642 170.523 242.024 170.19C242.38 170.641 243.01 171.073 243.044 171.547C243.167 173.291 243.286 175.075 243.05 176.795C242.654 179.666 244.009 181.895 245.321 184.177C245.522 184.528 245.903 184.775 246.201 185.07C246.457 184.623 246.956 184.16 246.93 183.73C246.661 179.344 246.252 174.966 245.995 170.579C245.845 168.019 245.935 165.446 245.853 162.88C245.695 157.944 245.495 153.008 245.253 148.075C245.25 148.025 244.397 147.903 243.995 148.012C243.444 148.163 242.944 148.503 242.422 148.762C242.327 148.013 241.909 147.1 242.193 146.544C243.363 144.249 244.422 141.753 246.158 139.939C247.403 138.637 249.652 137.674 251.46 137.663ZM232.469 158.253C235.552 158.671 236.295 161.372 237.021 163.961C238.552 169.417 238.201 174.914 237.558 180.706C237.558 185.906 236.228 187.485 230.516 187.817C226.284 188.063 222.001 187.613 217.751 187.315C215.551 187.161 214.63 185.452 214.332 183.514C213.357 177.173 213.356 170.849 214.842 164.559C215.146 163.274 214.98 161.867 215.356 160.614C216.219 157.735 219.057 157.7 221.168 157.585C224.916 157.38 228.733 157.746 232.469 158.253ZM447.575 184.368C447.799 184.692 447.963 185.09 448.256 185.328C450.446 187.099 452.799 188.311 456.004 187.009C456.65 186.668 457.296 186.328 457.942 185.987C457.826 185.774 457.742 185.402 457.59 185.372C454.62 184.787 451.647 184.216 448.661 183.725C448.342 183.673 447.939 184.141 447.575 184.368ZM311.653 166.171C309.233 166.47 306.854 167.134 304.432 167.365C303.062 167.496 301.641 167.02 300.236 166.89C299.835 166.853 299.198 166.95 299.053 167.205C298.885 167.5 299.047 168.366 299.227 168.417C301.349 169.022 300.817 170.479 300.363 171.852C299.601 174.156 298.1 176.119 295.658 176.179C292.483 176.256 289.295 175.58 286.106 175.304C284.431 175.159 282.206 174.469 281.162 175.258C278.394 177.351 276.915 180.527 277.518 184.108C277.687 185.116 279.099 186.604 280.037 186.679C285.323 187.103 290.645 187.417 295.943 187.288C303.627 187.101 312.388 179.018 313.358 171.574C313.439 170.956 313.098 170.283 312.954 169.636C312.545 170.128 312.001 170.558 311.748 171.12C308.718 177.857 303.862 182.411 295.953 184.027C293.322 184.581 290.707 185.246 288.051 185.61C287.375 185.703 286.568 184.838 285.822 184.413C286.444 184.087 287.033 183.616 287.696 183.462C289.56 183.027 291.495 182.866 293.328 182.339C298.522 180.848 303.598 179.246 306.883 174.315C308.454 171.958 310.728 170.069 312.698 167.98C313.081 167.573 313.525 167.224 313.942 166.848C313.177 166.605 312.377 166.082 311.653 166.171ZM247.521 145.005C247.337 145.297 246.964 145.611 246.996 145.877C247.509 150.165 248.254 154.433 248.561 158.733C248.744 161.301 248.087 163.918 248.113 166.509C248.157 170.854 248.357 175.202 248.649 179.538C249.046 185.418 249.986 186.19 255.767 185.669C257.058 185.552 258.524 185.512 259.557 184.87C260.896 184.04 262.36 182.827 262.899 181.44C263.581 179.684 263.529 177.589 263.532 175.639C263.536 173.782 262.99 171.917 263.056 170.069C263.338 162.208 263.93 154.355 264.057 146.493C264.125 142.276 263.244 141.405 259.738 140.894C257.082 140.506 254.375 140.387 251.686 140.326C248.567 140.254 247.543 141.356 247.521 145.005ZM217.065 166.766C216.913 172.029 216.569 177.294 216.662 182.552C216.678 183.429 218.461 184.944 219.506 185.016C223.66 185.303 227.847 185.211 232.017 185.094C233.559 185.051 234.876 184.501 234.837 182.4C234.802 180.455 235.159 178.504 235.344 176.001C235.344 173.792 235.195 171.57 235.384 169.377C235.587 167.025 234.892 166.206 232.392 166.243C227.87 166.312 223.328 166.085 218.823 165.671C217.586 165.557 217.106 165.357 217.065 166.766ZM255.252 171.884C255.706 171.84 256.187 172.282 256.68 172.391C258.036 172.691 260.425 172.658 260.584 173.248C261.134 175.287 261.182 177.569 260.918 179.696C260.44 183.542 257.233 182.028 254.717 182.367C252.452 182.303 250.708 182.11 250.796 179.35C250.855 177.5 250.093 175.576 250.375 173.792C250.839 170.856 253.441 172.059 255.252 171.884ZM252.442 176.893C252.531 179.112 253.104 180.399 256.1 180.153C257.115 179.523 258.73 179.1 259.03 178.225C259.852 175.826 258.556 174.621 255.662 174.618C254.065 174.617 252.331 174.154 252.442 176.893ZM461.036 167.837C462.641 168.578 461.988 173.544 461.786 175.39C461.313 179.696 455.639 178.731 455.639 177.546C455.639 175.399 457.403 176.221 457.942 176.001C460.189 175.086 459.431 167.096 461.036 167.837ZM232.715 173.095C229.724 174.795 226.895 176.404 224.001 177.883C223.306 178.238 222.391 178.164 221.578 178.287C221.975 177.659 222.229 176.823 222.792 176.437C225.285 174.727 227.799 173.025 230.44 171.565C232.111 170.64 232.972 171.277 232.715 173.095ZM224.588 171.337C225.16 171.388 225.708 171.703 226.267 171.906C226.025 172.295 225.871 172.814 225.525 173.052C224.036 174.076 222.513 175.058 220.945 175.954C220.64 176.129 220.078 175.856 219.635 175.79C219.73 175.282 219.648 174.557 219.954 174.305C220.949 173.486 222.085 172.84 223.305 171.988C223.826 171.666 224.224 171.305 224.588 171.337ZM290.695 168.41C291.109 168.772 291.479 169.223 291.954 169.469C292.32 169.658 292.89 169.463 293.243 169.663C293.908 170.04 294.482 170.578 295.094 171.049C294.379 171.316 293.68 171.664 292.941 171.816C292.572 171.892 292.134 171.591 291.719 171.495C289.149 170.903 286.558 169.244 284.036 171.601C283.664 171.949 283.362 172.374 283.028 172.763C283.46 172.828 283.891 172.905 284.324 172.955C285.991 173.145 287.655 173.376 289.327 173.499C291.856 173.684 294.544 175.169 297.06 172.404C299.088 171.156 298.475 169.77 296.873 169.009C295.434 168.325 293.693 168.248 292.07 168.007C291.641 167.943 291.154 168.265 290.695 168.41ZM471.046 166.476C471.52 164.036 473.003 162.272 474.359 162.536C475.714 162.799 476.428 164.991 475.954 167.43C475.48 169.87 473.997 171.634 472.641 171.37C471.286 171.107 470.572 168.916 471.046 166.476ZM261.087 146.051C261.993 146.317 262.914 148.306 262.926 149.523C262.973 154.135 262.657 158.75 262.458 163.364C262.431 163.975 262.296 164.581 262.208 165.189C261.824 167.837 260.419 168.682 257.665 168.604C249.353 168.37 250.366 169.476 250.265 161.026C250.216 156.87 249.923 152.717 249.734 148.563C249.653 146.809 250.358 145.795 252.233 145.833C252.968 145.848 253.704 145.835 254.717 145.835C257.041 145.853 259.198 145.495 261.087 146.051ZM449.43 158.241L449.563 158.254C450.93 158.446 451.758 160.597 451.412 163.058C451.066 165.519 449.677 167.358 448.31 167.166C446.943 166.974 446.115 164.823 446.461 162.362C446.807 159.901 448.195 158.061 449.563 158.254L449.43 158.241ZM254.515 148.106C253.741 148.475 252.612 149.237 252.591 149.862C252.429 154.542 252.421 159.234 252.58 163.914C252.608 164.732 253.623 166.168 254.228 166.192C256.032 166.264 258.029 166.121 259.596 165.345C260.267 165.013 260.06 162.909 260.252 161.057C260.252 158.3 259.877 155.48 260.336 152.802C261.098 148.357 261.063 148.049 256.692 148.049C255.957 148.049 255.113 147.821 254.515 148.106ZM224.025 160.246C222.352 160.339 220.662 160.477 219.035 160.839C218.482 160.962 218.095 161.827 217.632 162.353C218.222 162.751 218.805 163.482 219.403 163.495C223.928 163.591 228.456 163.562 232.982 163.523C233.402 163.52 234.152 163.199 234.168 162.983C234.2 162.53 233.966 161.772 233.631 161.627C232.309 161.058 230.905 160.677 228.979 160.226C227.327 160.226 225.671 160.155 224.025 160.246ZM478.122 155.024C481.035 156.05 481.84 158.548 481.876 159.174C481.912 159.801 475.954 155.793 471.553 157.921C470.974 158.2 469.134 157.546 468.923 156.898C468.596 155.891 469.758 155.021 470.477 154.61C473.056 153.137 475.21 153.998 478.122 155.024ZM455.861 152.003C456.548 152.371 457.729 153.534 457.138 154.576C456.961 154.889 454.923 154.977 454.324 154.713C449.259 152.477 440.568 155.211 439.259 155.194C440.294 154.288 441.188 152.994 442.393 152.556C445.117 151.567 447.962 150.67 450.822 150.392C452.452 150.233 454.31 151.173 455.861 152.003ZM294.934 83.5828C296.51 86.2408 298.971 86.0238 301.206 86.5588C303.334 87.0678 304.37 88.2728 305.171 90.2248C305.657 91.4108 306.814 92.5508 307.96 93.1938C310.855 94.8198 314.02 95.9728 316.878 97.6538C319.622 99.2678 319 102.222 318.87 104.783C318.807 106.028 318.185 107.244 317.816 108.75C316.384 111.936 315.207 115.012 313.444 117.704C311.799 120.215 308.83 120.819 305.986 120.891C300.829 121.021 295.623 121.336 290.517 120.809C285.697 120.312 280.742 120.574 276.083 118.355C272.315 116.56 271.201 113.131 269.734 109.942C268.139 106.471 267.076 102.75 265.852 99.1138C264.75 95.8408 266.493 92.6018 269.983 91.6198C272.477 90.9188 275.057 90.5288 277.573 89.8998C278.21 89.7408 279.043 89.3358 279.29 88.8108C280.657 85.9078 283.274 85.8148 285.918 85.4348C287.121 85.2628 288.37 84.5428 289.332 83.7488C291.155 82.2458 293.829 81.7198 294.934 83.5828ZM231.427 75.5758C234.302 75.5888 237.175 75.9088 240.326 76.0938C242.128 78.7758 244.58 79.8318 247.429 80.8788C252.312 82.6718 255.004 86.8358 255.708 91.8748C256.022 94.1158 254.896 96.5208 254.763 98.8708C254.579 102.119 254.781 105.387 254.693 108.643C254.639 110.598 254.503 112.578 254.127 114.492C253.561 117.373 250.886 119.187 247.143 119.246C241.889 119.329 236.633 119.267 231.377 119.267C229.225 119.267 227.015 118.951 224.933 119.333C220.56 120.134 216.239 113.878 215.942 109.879C215.501 103.923 214.95 97.9718 214.285 92.0358C213.697 86.7788 216.761 82.0358 221.914 80.4958C222.468 80.3298 223.139 79.9138 223.376 79.4288C225.057 75.9868 228.191 75.5608 231.427 75.5758ZM273.185 93.3078C268.988 93.7268 268.167 95.0898 269.14 99.2578C269.801 102.09 270.768 104.851 271.875 107.92C272.97 111.678 274.342 115.4 278.484 116.644C281.396 117.518 284.511 117.995 287.553 118.095C294.035 118.308 300.529 118.22 307.017 118.127C309.251 118.095 311.411 117.509 312.322 115.063C313.632 111.546 314.972 108.034 316.102 104.458C316.459 103.33 316.698 101.559 316.093 100.854C314.678 99.2058 312.915 97.5318 310.944 96.7468C304.556 94.2038 297.89 92.3068 290.985 92.2348C285.054 92.1728 279.098 92.7178 273.185 93.3078ZM225.463 82.2618C220.251 82.8478 217.078 84.4048 217.108 91.2218C217.122 94.5578 217.374 97.8978 217.653 101.225C217.926 104.491 218.384 107.742 218.734 111.002C219.005 113.523 221.427 116.395 223.647 116.475C230.575 116.726 237.509 117.059 244.437 116.997C250.856 116.94 251.847 115.55 251.984 108.952C252.081 104.269 252.503 99.5918 253.056 94.6358C253.619 89.7998 251.721 86.0328 247.569 83.7468C245.446 82.5788 242.846 81.8098 240.433 81.7318C235.45 81.5728 230.415 81.7058 225.463 82.2618ZM289.508 96.2168C289.534 96.7858 289.796 97.4978 289.55 97.9008C287.623 101.054 285.598 104.148 283.607 107.261C283.376 107.622 283.233 108.071 282.929 108.342C282.515 108.712 281.984 108.951 281.503 109.245C281.311 108.554 280.806 107.76 280.994 107.195C281.336 106.166 282.088 105.272 282.807 104.184C284.626 101.628 286.274 99.1858 288.019 96.8158C288.289 96.4488 289 96.4078 289.508 96.2168ZM282.711 99.9368C282.292 100.882 281.976 101.892 281.426 102.753C280.77 103.781 279.913 104.681 279.142 105.635C278.194 106.808 277.635 106.578 277.41 104.876C278.115 103.526 278.651 102.267 279.573 101.435C280.398 100.691 281.649 100.418 282.711 99.9368ZM235.679 93.9278C235.848 93.9198 236.362 95.1898 236.205 95.3438C233.546 97.9458 230.817 100.478 228.058 102.975C227.876 103.14 227.126 103.024 226.991 102.813C226.775 102.478 226.645 101.769 226.846 101.54C227.876 100.366 229.036 99.3078 230.121 98.1808C230.379 97.9128 230.527 97.5388 230.726 97.2128C230.346 97.3508 229.892 97.3978 229.6 97.6398C228.152 98.8428 226.78 100.141 225.306 101.31C224.796 101.715 224.068 101.847 223.439 102.104C223.533 101.389 223.413 100.538 223.766 99.9898C224.439 98.9438 225.381 98.0708 226.488 97.1268C228.867 93.6688 232.392 94.0728 235.679 93.9278ZM283.364 88.2968C282.996 88.3808 282.714 88.8418 282.392 89.1268C282.731 89.3948 283.063 89.8838 283.411 89.8948C285.622 89.9658 287.847 89.7938 290.047 89.9638C293.132 90.2028 296.199 90.6688 299.827 91.0378C300.446 91.1028 301.065 91.2228 301.683 91.2168C302.194 91.2118 302.704 91.0588 303.215 90.9718C302.964 90.5808 302.776 90.1198 302.445 89.8168C302.073 89.4758 301.6 89.1318 301.122 89.0378C295.242 87.8788 289.344 86.9328 283.364 88.2968ZM231.193 77.7538C230.256 77.9388 229.296 78.0468 228.392 78.3338C227.774 78.5308 227.236 78.9768 226.662 79.3118C227.4 79.5308 228.145 79.9558 228.875 79.9318C231.84 79.8348 234.802 79.6298 237.76 79.3908C238.443 79.3358 239.102 78.9898 239.772 78.7768C239.03 78.4358 238.306 77.8568 237.543 77.8008C235.62 77.6598 233.68 77.7538 231.193 77.7538Z" fill="#00160A"/>
</svg>
